<svg width="261" height="68" viewBox="0 0 261 68" fill="none" xmlns="http://www.w3.org/2000/svg">
<path fill-rule="evenodd" clip-rule="evenodd" d="M13.2319 0.327454L60.0583 0.327454V18.6508H13.2319V0.327454ZM19.339 6.43541L60.0577 6.43541V13.2218L19.339 13.2218V6.43541ZM6.10779 36.9745L6.10779 0.327768L0 0.327768L0 36.9745C0 53.6533 13.5208 67.1742 30.1996 67.1742C46.8784 67.1742 60.3993 53.6533 60.3993 36.9745V26.1162H54.2915V36.9745C54.2915 50.2801 43.5052 61.0664 30.1996 61.0664C16.8941 61.0664 6.10779 50.2801 6.10779 36.9745ZM19.6764 26.1168V36.9751C19.6764 42.7845 24.3859 47.4941 30.1954 47.4941C36.0049 47.4941 40.7144 42.7845 40.7144 36.9751V26.1168H46.8222V36.9751C46.8222 46.1578 39.3781 53.6018 30.1954 53.6018C21.0127 53.6018 13.5686 46.1578 13.5686 36.9751L13.5686 26.1168H19.6764ZM26.8045 26.1164H33.591V39.5975L30.2011 37.3141L26.8045 39.6019V26.1164Z" fill="#259D4A"/>
<path d="M254.91 44.0539C253.708 44.0539 252.675 43.8106 251.808 43.3241C250.947 42.8325 250.283 42.1383 249.817 41.2413C249.35 40.3393 249.117 39.2725 249.117 38.0411C249.117 36.84 249.35 35.7859 249.817 34.8788C250.283 33.9717 250.939 33.2648 251.785 32.758C252.637 32.2512 253.635 31.9979 254.78 31.9979C255.551 31.9979 256.268 32.122 256.932 32.3703C257.6 32.6136 258.183 32.981 258.68 33.4726C259.182 33.9641 259.572 34.5824 259.851 35.3273C260.129 36.0672 260.269 36.9338 260.269 37.927V38.8164H250.409V36.8096H257.22C257.22 36.3434 257.119 35.9304 256.916 35.5706C256.714 35.2108 256.432 34.9295 256.073 34.7268C255.718 34.519 255.305 34.4151 254.834 34.4151C254.342 34.4151 253.906 34.5292 253.526 34.7572C253.151 34.9802 252.857 35.2817 252.644 35.6618C252.431 36.0368 252.322 36.4549 252.317 36.916V38.824C252.317 39.4017 252.424 39.9009 252.637 40.3215C252.855 40.7421 253.161 41.0665 253.556 41.2945C253.952 41.5226 254.42 41.6366 254.963 41.6366C255.323 41.6366 255.652 41.5859 255.951 41.4845C256.25 41.3832 256.506 41.2312 256.719 41.0285C256.932 40.8258 257.094 40.5774 257.205 40.2835L260.2 40.4811C260.048 41.2008 259.736 41.8291 259.265 42.3663C258.799 42.8984 258.196 43.314 257.456 43.613C256.721 43.9069 255.872 44.0539 254.91 44.0539Z" fill="#363B38"/>
<path d="M241.624 48.4475C240.575 48.4475 239.676 48.3031 238.926 48.0142C238.181 47.7305 237.588 47.3428 237.147 46.8512C236.706 46.3597 236.42 45.8073 236.288 45.1941L239.283 44.7912C239.374 45.0243 239.519 45.2422 239.716 45.4449C239.914 45.6476 240.175 45.8098 240.499 45.9314C240.829 46.0581 241.229 46.1215 241.7 46.1215C242.405 46.1215 242.985 45.9492 243.441 45.6046C243.902 45.265 244.133 44.6949 244.133 43.8942V41.7582H243.996C243.854 42.0825 243.641 42.3891 243.357 42.678C243.074 42.9668 242.709 43.2025 242.263 43.3849C241.817 43.5674 241.285 43.6586 240.666 43.6586C239.79 43.6586 238.992 43.4559 238.272 43.0505C237.557 42.64 236.987 42.0141 236.562 41.1729C236.141 40.3266 235.931 39.2573 235.931 37.965C235.931 36.6424 236.146 35.5376 236.577 34.6508C237.008 33.7639 237.58 33.1001 238.295 32.6592C239.014 32.2183 239.802 31.9979 240.659 31.9979C241.313 31.9979 241.86 32.1094 242.301 32.3323C242.742 32.5502 243.096 32.8239 243.365 33.1533C243.639 33.4776 243.849 33.7969 243.996 34.1111H244.117V32.1499H247.333V43.9398C247.333 44.9331 247.09 45.7642 246.603 46.4331C246.117 47.1021 245.443 47.6038 244.581 47.9382C243.725 48.2778 242.739 48.4475 241.624 48.4475ZM241.693 41.2261C242.215 41.2261 242.655 41.0969 243.015 40.8384C243.38 40.5749 243.659 40.1999 243.851 39.7134C244.049 39.2218 244.148 38.634 244.148 37.9498C244.148 37.2657 244.052 36.6728 243.859 36.1711C243.666 35.6643 243.388 35.2716 243.023 34.9929C242.658 34.7141 242.215 34.5748 241.693 34.5748C241.16 34.5748 240.712 34.7192 240.347 35.0081C239.982 35.2919 239.706 35.6871 239.519 36.1939C239.331 36.7007 239.237 37.286 239.237 37.9498C239.237 38.6238 239.331 39.2066 239.519 39.6982C239.711 40.1847 239.987 40.5622 240.347 40.8308C240.712 41.0943 241.16 41.2261 241.693 41.2261Z" fill="#363B38"/>
<path d="M229.212 44.0539C228.011 44.0539 226.977 43.8106 226.111 43.3241C225.249 42.8325 224.585 42.1383 224.119 41.2413C223.653 40.3393 223.42 39.2725 223.42 38.0411C223.42 36.84 223.653 35.7859 224.119 34.8788C224.585 33.9717 225.242 33.2648 226.088 32.758C226.939 32.2512 227.938 31.9979 229.083 31.9979C229.853 31.9979 230.57 32.122 231.234 32.3703C231.903 32.6136 232.486 32.981 232.983 33.4726C233.484 33.9641 233.875 34.5824 234.153 35.3273C234.432 36.0672 234.571 36.9338 234.571 37.927V38.8164H224.712V36.8096H231.523C231.523 36.3434 231.422 35.9304 231.219 35.5706C231.016 35.2108 230.735 34.9295 230.375 34.7268C230.021 34.519 229.608 34.4151 229.136 34.4151C228.645 34.4151 228.209 34.5292 227.829 34.7572C227.454 34.9802 227.16 35.2817 226.947 35.6618C226.734 36.0368 226.625 36.4549 226.62 36.916V38.824C226.62 39.4017 226.727 39.9009 226.939 40.3215C227.157 40.7421 227.464 41.0665 227.859 41.2945C228.254 41.5226 228.723 41.6366 229.265 41.6366C229.625 41.6366 229.955 41.5859 230.254 41.4845C230.553 41.3832 230.809 41.2312 231.021 41.0285C231.234 40.8258 231.396 40.5774 231.508 40.2835L234.503 40.4811C234.351 41.2008 234.039 41.8291 233.568 42.3663C233.102 42.8984 232.499 43.314 231.759 43.613C231.024 43.9069 230.175 44.0539 229.212 44.0539Z" fill="#363B38"/>
<path d="M221.619 28.2579V43.8258H218.381V28.2579H221.619Z" fill="#363B38"/>
<path d="M216.107 28.2579V43.8258H212.869V28.2579H216.107Z" fill="#363B38"/>
<path d="M205.339 44.0539C204.158 44.0539 203.137 43.803 202.275 43.3013C201.419 42.7945 200.757 42.0901 200.291 41.1881C199.825 40.281 199.592 39.2294 199.592 38.0335C199.592 36.8274 199.825 35.7733 200.291 34.8712C200.757 33.9641 201.419 33.2597 202.275 32.758C203.137 32.2512 204.158 31.9979 205.339 31.9979C206.519 31.9979 207.538 32.2512 208.394 32.758C209.256 33.2597 209.92 33.9641 210.386 34.8712C210.852 35.7733 211.085 36.8274 211.085 38.0335C211.085 39.2294 210.852 40.281 210.386 41.1881C209.92 42.0901 209.256 42.7945 208.394 43.3013C207.538 43.803 206.519 44.0539 205.339 44.0539ZM205.354 41.5454C205.891 41.5454 206.339 41.3933 206.699 41.0893C207.059 40.7801 207.33 40.3595 207.513 39.8274C207.7 39.2953 207.794 38.6897 207.794 38.0107C207.794 37.3316 207.7 36.726 207.513 36.1939C207.33 35.6618 207.059 35.2412 206.699 34.932C206.339 34.6229 205.891 34.4684 205.354 34.4684C204.811 34.4684 204.355 34.6229 203.985 34.932C203.621 35.2412 203.344 35.6618 203.157 36.1939C202.974 36.726 202.883 37.3316 202.883 38.0107C202.883 38.6897 202.974 39.2953 203.157 39.8274C203.344 40.3595 203.621 40.7801 203.985 41.0893C204.355 41.3933 204.811 41.5454 205.354 41.5454Z" fill="#363B38"/>
<path d="M198.084 33.7082H194.754C194.694 33.2774 194.569 32.8948 194.382 32.5604C194.194 32.2208 193.954 31.932 193.66 31.6938C193.366 31.4556 193.026 31.2732 192.641 31.1465C192.261 31.0198 191.848 30.9565 191.402 30.9565C190.596 30.9565 189.894 31.1566 189.296 31.557C188.698 31.9522 188.235 32.53 187.905 33.2901C187.576 34.0452 187.411 34.9624 187.411 36.0419C187.411 37.1517 187.576 38.0841 187.905 38.8392C188.24 39.5943 188.706 40.1644 189.304 40.5496C189.902 40.9347 190.594 41.1273 191.379 41.1273C191.82 41.1273 192.228 41.069 192.603 40.9524C192.983 40.8359 193.32 40.6661 193.614 40.4431C193.908 40.2151 194.151 39.9389 194.344 39.6146C194.542 39.2902 194.678 38.9203 194.754 38.5048L198.084 38.52C197.998 39.2345 197.782 39.9237 197.438 40.5876C197.098 41.2464 196.64 41.8368 196.062 42.3587C195.489 42.8756 194.805 43.2861 194.009 43.5902C193.219 43.8892 192.324 44.0387 191.326 44.0387C189.938 44.0387 188.696 43.7245 187.601 43.0961C186.512 42.4677 185.65 41.558 185.017 40.3671C184.388 39.1762 184.074 37.7345 184.074 36.0419C184.074 34.3442 184.393 32.8999 185.032 31.709C185.671 30.5181 186.537 29.611 187.632 28.9877C188.726 28.3593 189.958 28.0451 191.326 28.0451C192.228 28.0451 193.064 28.1718 193.835 28.4251C194.61 28.6785 195.297 29.0485 195.895 29.535C196.493 30.0164 196.979 30.6068 197.354 31.3061C197.734 32.0055 197.977 32.8062 198.084 33.7082Z" fill="#363B38"/>
<path d="M169.432 48.2043C169.022 48.2043 168.637 48.1713 168.277 48.1054C167.922 48.0446 167.628 47.9661 167.395 47.8698L168.125 45.4525C168.505 45.5691 168.847 45.6324 169.151 45.6426C169.46 45.6527 169.726 45.5817 169.949 45.4297C170.177 45.2777 170.362 45.0192 170.504 44.6544L170.694 44.1603L166.506 32.1499H169.911L172.329 40.7244H172.45L174.89 32.1499H178.319L173.781 45.0876C173.563 45.716 173.266 46.2633 172.891 46.7296C172.521 47.2009 172.052 47.5632 171.485 47.8166C170.917 48.075 170.233 48.2043 169.432 48.2043Z" fill="#363B38"/>
<path d="M165.645 32.1499V34.5823H158.613V32.1499H165.645ZM160.21 29.3525H163.448V40.2379C163.448 40.5369 163.493 40.77 163.585 40.9372C163.676 41.0994 163.803 41.2134 163.965 41.2793C164.132 41.3452 164.325 41.3781 164.542 41.3781C164.694 41.3781 164.847 41.3654 164.999 41.3401C165.151 41.3097 165.267 41.2869 165.348 41.2717L165.858 43.6814C165.695 43.732 165.467 43.7903 165.173 43.8562C164.879 43.9271 164.522 43.9702 164.102 43.9854C163.321 44.0158 162.637 43.9119 162.049 43.6738C161.466 43.4356 161.013 43.0656 160.688 42.5639C160.364 42.0622 160.205 41.4288 160.21 40.6636V29.3525Z" fill="#363B38"/>
<path d="M153.923 43.8258V32.1499H157.162V43.8258H153.923ZM155.55 30.6448C155.069 30.6448 154.656 30.4851 154.311 30.1659C153.972 29.8416 153.802 29.4539 153.802 29.0029C153.802 28.5569 153.972 28.1743 154.311 27.855C154.656 27.5307 155.069 27.3685 155.55 27.3685C156.032 27.3685 156.442 27.5307 156.782 27.855C157.126 28.1743 157.298 28.5569 157.298 29.0029C157.298 29.4539 157.126 29.8416 156.782 30.1659C156.442 30.4851 156.032 30.6448 155.55 30.6448Z" fill="#363B38"/>
<path d="M151.939 35.4794L148.974 35.6618C148.923 35.4084 148.814 35.1804 148.647 34.9777C148.48 34.7699 148.26 34.6052 147.986 34.4836C147.717 34.3569 147.396 34.2935 147.02 34.2935C146.519 34.2935 146.096 34.3999 145.751 34.6128C145.406 34.8206 145.234 35.0993 145.234 35.4489C145.234 35.7277 145.346 35.9633 145.569 36.1559C145.792 36.3485 146.174 36.503 146.716 36.6196L148.83 37.0453C149.965 37.2784 150.811 37.6534 151.369 38.1703C151.926 38.6872 152.205 39.3663 152.205 40.2075C152.205 40.9727 151.979 41.6442 151.528 42.2219C151.082 42.7996 150.469 43.2506 149.689 43.575C148.913 43.8942 148.019 44.0539 147.005 44.0539C145.46 44.0539 144.228 43.7321 143.311 43.0885C142.399 42.4398 141.864 41.558 141.707 40.4431L144.892 40.2759C144.988 40.7472 145.221 41.107 145.591 41.3553C145.961 41.5986 146.435 41.7202 147.013 41.7202C147.58 41.7202 148.037 41.6112 148.381 41.3933C148.731 41.1704 148.908 40.884 148.913 40.5344C148.908 40.2404 148.784 39.9997 148.541 39.8122C148.298 39.6196 147.923 39.4727 147.416 39.3713L145.394 38.9684C144.254 38.7404 143.405 38.3451 142.847 37.7826C142.295 37.2201 142.019 36.503 142.019 35.6314C142.019 34.8814 142.221 34.2352 142.627 33.693C143.037 33.1508 143.612 32.7327 144.352 32.4387C145.097 32.1448 145.969 31.9979 146.967 31.9979C148.442 31.9979 149.602 32.3095 150.449 32.9328C151.3 33.5562 151.797 34.405 151.939 35.4794Z" fill="#363B38"/>
<path d="M133.786 43.8258V32.1499H136.926V34.1871H137.047C137.26 33.4624 137.617 32.9151 138.119 32.5451C138.621 32.1701 139.198 31.9826 139.852 31.9826C140.014 31.9826 140.189 31.9928 140.377 32.013C140.564 32.0333 140.729 32.0612 140.871 32.0967V34.97C140.719 34.9244 140.508 34.8839 140.24 34.8484C139.971 34.8129 139.725 34.7952 139.502 34.7952C139.026 34.7952 138.6 34.8991 138.225 35.1069C137.855 35.3096 137.562 35.5934 137.344 35.9582C137.131 36.3231 137.024 36.7437 137.024 37.2201V43.8258H133.786Z" fill="#363B38"/>
<path d="M126.635 44.0539C125.434 44.0539 124.4 43.8106 123.534 43.3241C122.672 42.8325 122.008 42.1383 121.542 41.2413C121.076 40.3393 120.843 39.2725 120.843 38.0411C120.843 36.84 121.076 35.7859 121.542 34.8788C122.008 33.9717 122.665 33.2648 123.511 32.758C124.362 32.2512 125.361 31.9979 126.506 31.9979C127.276 31.9979 127.993 32.122 128.657 32.3703C129.326 32.6136 129.909 32.981 130.405 33.4726C130.907 33.9641 131.297 34.5824 131.576 35.3273C131.855 36.0672 131.994 36.9338 131.994 37.927V38.8164H122.135V36.8096H128.946C128.946 36.3434 128.845 35.9304 128.642 35.5706C128.439 35.2108 128.158 34.9295 127.798 34.7268C127.443 34.519 127.03 34.4151 126.559 34.4151C126.068 34.4151 125.632 34.5292 125.252 34.7572C124.877 34.9802 124.583 35.2817 124.37 35.6618C124.157 36.0368 124.048 36.4549 124.043 36.916V38.824C124.043 39.4017 124.149 39.9009 124.362 40.3215C124.58 40.7421 124.887 41.0665 125.282 41.2945C125.677 41.5226 126.146 41.6366 126.688 41.6366C127.048 41.6366 127.378 41.5859 127.677 41.4845C127.976 41.3832 128.231 41.2312 128.444 41.0285C128.657 40.8258 128.819 40.5774 128.931 40.2835L131.926 40.4811C131.774 41.2008 131.462 41.8291 130.991 42.3663C130.525 42.8984 129.922 43.314 129.182 43.613C128.447 43.9069 127.598 44.0539 126.635 44.0539Z" fill="#363B38"/>
<path d="M120.355 32.1499L116.273 43.8258H112.624L108.542 32.1499H111.963L114.388 40.5039H114.509L116.926 32.1499H120.355Z" fill="#363B38"/>
<path d="M103.958 43.8258V32.1499H107.196V43.8258H103.958ZM105.584 30.6448C105.103 30.6448 104.69 30.4851 104.345 30.1659C104.006 29.8416 103.836 29.4539 103.836 29.0029C103.836 28.5569 104.006 28.1743 104.345 27.855C104.69 27.5307 105.103 27.3685 105.584 27.3685C106.066 27.3685 106.476 27.5307 106.816 27.855C107.16 28.1743 107.333 28.5569 107.333 29.0029C107.333 29.4539 107.16 29.8416 106.816 30.1659C106.476 30.4851 106.066 30.6448 105.584 30.6448Z" fill="#363B38"/>
<path d="M94.2011 37.0757V43.8258H90.9629V32.1499H94.0491V34.2099H94.1859C94.4444 33.5308 94.8777 32.9937 95.4858 32.5984C96.0939 32.198 96.8313 31.9979 97.6978 31.9979C98.5087 31.9979 99.2156 32.1752 99.8187 32.53C100.422 32.8847 100.89 33.3915 101.225 34.0503C101.559 34.704 101.727 35.4844 101.727 36.3915V43.8258H98.4884V36.9692C98.4935 36.2547 98.311 35.6973 97.9411 35.2969C97.5711 34.8915 97.0618 34.6888 96.4132 34.6888C95.9774 34.6888 95.5922 34.7825 95.2577 34.9701C94.9283 35.1576 94.6699 35.4312 94.4824 35.791C94.3 36.1458 94.2062 36.574 94.2011 37.0757Z" fill="#363B38"/>
<path d="M85.3454 28.2579H88.6369V38.3679C88.6369 39.5031 88.3657 40.4963 87.8235 41.3477C87.2863 42.1991 86.5338 42.8629 85.5658 43.3393C84.5979 43.8106 83.4704 44.0462 82.1832 44.0462C80.8909 44.0462 79.7608 43.8106 78.7929 43.3393C77.825 42.8629 77.0724 42.1991 76.5353 41.3477C75.9981 40.4963 75.7295 39.5031 75.7295 38.3679V28.2579H79.0209V38.0867C79.0209 38.6796 79.1502 39.2066 79.4086 39.6678C79.6721 40.1289 80.0421 40.4913 80.5184 40.7548C80.9948 41.0183 81.5497 41.1501 82.1832 41.1501C82.8217 41.1501 83.3766 41.0183 83.8479 40.7548C84.3243 40.4913 84.6917 40.1289 84.9501 39.6678C85.2136 39.2066 85.3454 38.6796 85.3454 38.0867V28.2579Z" fill="#363B38"/>
<path d="M164.118 10.4793L161.154 10.6618C161.103 10.4084 160.994 10.1803 160.827 9.97763C160.66 9.76985 160.439 9.60515 160.166 9.48353C159.897 9.35684 159.575 9.29349 159.2 9.29349C158.698 9.29349 158.275 9.39991 157.931 9.61275C157.586 9.82053 157.414 10.0992 157.414 10.4489C157.414 10.7276 157.525 10.9633 157.748 11.1559C157.971 11.3484 158.354 11.503 158.896 11.6196L161.009 12.0452C162.144 12.2783 162.991 12.6534 163.548 13.1703C164.106 13.6872 164.384 14.3662 164.384 15.2075C164.384 15.9727 164.159 16.6442 163.708 17.2219C163.262 17.7996 162.649 18.2506 161.868 18.5749C161.093 18.8942 160.199 19.0538 159.185 19.0538C157.639 19.0538 156.408 18.732 155.491 18.0884C154.578 17.4398 154.044 16.558 153.887 15.4431L157.072 15.2759C157.168 15.7472 157.401 16.107 157.771 16.3553C158.141 16.5985 158.615 16.7202 159.193 16.7202C159.76 16.7202 160.216 16.6112 160.561 16.3933C160.911 16.1703 161.088 15.884 161.093 15.5343C161.088 15.2404 160.964 14.9997 160.72 14.8122C160.477 14.6196 160.102 14.4727 159.595 14.3713L157.573 13.9684C156.433 13.7404 155.584 13.3451 155.027 12.7826C154.475 12.2201 154.198 11.503 154.198 10.6314C154.198 9.88134 154.401 9.23521 154.807 8.69297C155.217 8.15073 155.792 7.73265 156.532 7.43872C157.277 7.1448 158.149 6.99783 159.147 6.99783C160.622 6.99783 161.782 7.3095 162.628 7.93282C163.48 8.55614 163.976 9.40498 164.118 10.4793Z" fill="#363B38"/>
<path d="M145.966 18.8258V7.14987H149.105V9.18707H149.227C149.44 8.4624 149.797 7.91509 150.299 7.54515C150.8 7.17014 151.378 6.98264 152.032 6.98264C152.194 6.98264 152.369 6.99277 152.556 7.01304C152.744 7.03331 152.909 7.06118 153.05 7.09666V9.97003C152.898 9.92442 152.688 9.88388 152.42 9.84841C152.151 9.81293 151.905 9.7952 151.682 9.7952C151.206 9.7952 150.78 9.89908 150.405 10.1069C150.035 10.3096 149.741 10.5934 149.523 10.9582C149.31 11.3231 149.204 11.7437 149.204 12.2201V18.8258H145.966Z" fill="#363B38"/>
<path d="M138.815 19.0538C137.614 19.0538 136.58 18.8106 135.713 18.3241C134.852 17.8325 134.188 17.1382 133.722 16.2413C133.256 15.3392 133.022 14.2725 133.022 13.041C133.022 11.84 133.256 10.7859 133.722 9.87881C134.188 8.97169 134.844 8.26475 135.691 7.75798C136.542 7.25122 137.54 6.99783 138.686 6.99783C139.456 6.99783 140.173 7.12199 140.837 7.37031C141.506 7.61356 142.089 7.98096 142.585 8.47253C143.087 8.96409 143.477 9.58235 143.756 10.3273C144.035 11.0672 144.174 11.9337 144.174 12.927V13.8164H134.315V11.8096H141.126C141.126 11.3434 141.024 10.9303 140.822 10.5705C140.619 10.2107 140.338 9.92948 139.978 9.72678C139.623 9.519 139.21 9.41511 138.739 9.41511C138.247 9.41511 137.811 9.52914 137.431 9.75718C137.056 9.98016 136.762 10.2817 136.55 10.6618C136.337 11.0368 136.228 11.4549 136.223 11.916V13.824C136.223 14.4017 136.329 14.9009 136.542 15.3215C136.76 15.7421 137.066 16.0664 137.462 16.2945C137.857 16.5225 138.326 16.6365 138.868 16.6365C139.228 16.6365 139.557 16.5859 139.856 16.4845C140.155 16.3832 140.411 16.2311 140.624 16.0284C140.837 15.8257 140.999 15.5774 141.11 15.2835L144.105 15.4811C143.953 16.2007 143.642 16.8291 143.17 17.3663C142.704 17.8984 142.101 18.3139 141.361 18.6129C140.627 18.9069 139.778 19.0538 138.815 19.0538Z" fill="#363B38"/>
<path d="M123.737 12.0756V18.8258H120.499V7.14986H123.585V9.20987H123.722C123.981 8.5308 124.414 7.99363 125.022 7.59835C125.63 7.19801 126.367 6.99783 127.234 6.99783C128.045 6.99783 128.752 7.1752 129.355 7.52994C129.958 7.88468 130.427 8.39144 130.761 9.05024C131.096 9.70397 131.263 10.4844 131.263 11.3915V18.8258H128.025V11.9692C128.03 11.2547 127.847 10.6972 127.477 10.2969C127.107 9.89148 126.598 9.68877 125.949 9.68877C125.513 9.68877 125.128 9.78252 124.794 9.97002C124.464 10.1575 124.206 10.4312 124.019 10.791C123.836 11.1457 123.742 11.5739 123.737 12.0756Z" fill="#363B38"/>
<path d="M112.062 18.8258V7.14987H115.201V9.18707H115.323C115.535 8.4624 115.893 7.91509 116.394 7.54515C116.896 7.17014 117.474 6.98264 118.128 6.98264C118.29 6.98264 118.465 6.99277 118.652 7.01304C118.84 7.03331 119.004 7.06118 119.146 7.09666V9.97003C118.994 9.92442 118.784 9.88388 118.515 9.84841C118.247 9.81293 118.001 9.7952 117.778 9.7952C117.302 9.7952 116.876 9.89908 116.501 10.1069C116.131 10.3096 115.837 10.5934 115.619 10.9582C115.406 11.3231 115.3 11.7437 115.3 12.2201V18.8258H112.062Z" fill="#363B38"/>
<path d="M103.295 19.0462C102.55 19.0462 101.886 18.917 101.303 18.6586C100.72 18.395 100.259 18.0074 99.9197 17.4955C99.5852 16.9786 99.418 16.335 99.418 15.5647C99.418 14.9161 99.5371 14.3713 99.7752 13.9304C100.013 13.4895 100.338 13.1348 100.748 12.8662C101.159 12.5976 101.625 12.3949 102.147 12.2581C102.674 12.1213 103.226 12.025 103.804 11.9692C104.483 11.8983 105.03 11.8324 105.446 11.7716C105.862 11.7057 106.163 11.6094 106.351 11.4827C106.538 11.356 106.632 11.1685 106.632 10.9202V10.8746C106.632 10.3932 106.48 10.0207 106.176 9.75718C105.877 9.49366 105.451 9.3619 104.899 9.3619C104.316 9.3619 103.852 9.49113 103.508 9.74958C103.163 10.003 102.935 10.3222 102.823 10.7074L99.8285 10.4641C99.9805 9.75465 100.279 9.14146 100.725 8.62456C101.171 8.10259 101.747 7.70224 102.451 7.42352C103.16 7.13973 103.981 6.99783 104.914 6.99783C105.563 6.99783 106.183 7.07385 106.776 7.22588C107.374 7.37791 107.904 7.61356 108.365 7.93282C108.831 8.25208 109.199 8.66256 109.467 9.16426C109.736 9.6609 109.87 10.2563 109.87 10.9506V18.8258H106.799V17.2067H106.708C106.52 17.5715 106.269 17.8933 105.955 18.1721C105.641 18.4457 105.264 18.6611 104.823 18.8182C104.382 18.9702 103.872 19.0462 103.295 19.0462ZM104.222 16.8114C104.698 16.8114 105.119 16.7176 105.484 16.5301C105.849 16.3376 106.135 16.0791 106.343 15.7548C106.551 15.4304 106.655 15.063 106.655 14.6526V13.4135C106.553 13.4794 106.414 13.5402 106.237 13.5959C106.064 13.6466 105.869 13.6948 105.651 13.7404C105.433 13.7809 105.215 13.8189 104.997 13.8544C104.78 13.8848 104.582 13.9127 104.405 13.938C104.024 13.9938 103.693 14.0824 103.409 14.2041C103.125 14.3257 102.905 14.4904 102.747 14.6982C102.59 14.9009 102.512 15.1543 102.512 15.4583C102.512 15.8992 102.671 16.2362 102.991 16.4693C103.315 16.6974 103.725 16.8114 104.222 16.8114Z" fill="#363B38"/>
<path d="M92.8138 19.0538C91.6128 19.0538 90.579 18.8106 89.7124 18.3241C88.8509 17.8325 88.187 17.1382 87.7208 16.2413C87.2546 15.3392 87.0215 14.2725 87.0215 13.041C87.0215 11.84 87.2546 10.7859 87.7208 9.87881C88.187 8.97169 88.8433 8.26475 89.6896 7.75798C90.541 7.25122 91.5393 6.99783 92.6846 6.99783C93.4549 6.99783 94.172 7.12199 94.8358 7.37031C95.5048 7.61356 96.0876 7.98096 96.5842 8.47253C97.0859 8.96409 97.4761 9.58235 97.7548 10.3273C98.0335 11.0672 98.1729 11.9337 98.1729 12.927V13.8164H88.3137V11.8096H95.1247C95.1247 11.3434 95.0233 10.9303 94.8206 10.5705C94.6179 10.2107 94.3367 9.92948 93.9769 9.72678C93.6221 9.519 93.2091 9.41511 92.7378 9.41511C92.2463 9.41511 91.8104 9.52914 91.4304 9.75718C91.0554 9.98016 90.7614 10.2817 90.5486 10.6618C90.3357 11.0368 90.2268 11.4549 90.2217 11.916V13.824C90.2217 14.4017 90.3281 14.9009 90.541 15.3215C90.7589 15.7421 91.0655 16.0664 91.4608 16.2945C91.856 16.5225 92.3248 16.6365 92.867 16.6365C93.2269 16.6365 93.5563 16.5859 93.8552 16.4845C94.1542 16.3832 94.4102 16.2311 94.623 16.0284C94.8358 15.8257 94.998 15.5774 95.1095 15.2835L98.1045 15.4811C97.9525 16.2007 97.6408 16.8291 97.1695 17.3663C96.7033 17.8984 96.1002 18.3139 95.3603 18.6129C94.6255 18.9069 93.7767 19.0538 92.8138 19.0538Z" fill="#363B38"/>
<path d="M75.7295 18.8258V3.2579H79.0209V16.1121H85.6951V18.8258H75.7295Z" fill="#363B38"/>
<path d="M193.834 61.5158C193.356 61.5158 192.933 61.3951 192.564 61.1535C192.195 60.9094 191.906 60.561 191.695 60.1084C191.483 59.6558 191.378 59.1142 191.378 58.4836C191.378 57.8556 191.483 57.3165 191.695 56.8665C191.908 56.4138 192.201 56.068 192.572 55.829C192.943 55.5875 193.368 55.4667 193.846 55.4667C194.212 55.4667 194.505 55.5277 194.727 55.6498C194.948 55.7718 195.12 55.9129 195.242 56.0731C195.366 56.2333 195.463 56.3719 195.531 56.4889H195.6V53.5901H196.691V61.4014H195.627V60.4898H195.531C195.463 60.6119 195.365 60.7543 195.238 60.917C195.111 61.0772 194.935 61.2171 194.711 61.3366C194.488 61.4561 194.195 61.5158 193.834 61.5158ZM194.063 60.5776C194.396 60.5776 194.678 60.4898 194.91 60.3144C195.141 60.1364 195.317 59.8898 195.436 59.5745C195.558 59.2566 195.619 58.8892 195.619 58.4722C195.619 58.0577 195.559 57.6967 195.44 57.389C195.323 57.0788 195.149 56.8372 194.917 56.6643C194.686 56.4914 194.401 56.4049 194.063 56.4049C193.71 56.4049 193.416 56.4952 193.182 56.6757C192.948 56.8563 192.773 57.1029 192.656 57.4157C192.539 57.7284 192.48 58.0806 192.48 58.4722C192.48 58.8689 192.54 59.2261 192.659 59.5439C192.779 59.8618 192.956 60.1135 193.19 60.2991C193.424 60.4848 193.715 60.5776 194.063 60.5776Z" fill="#565A58"/>
<path d="M188.008 61.5197C187.433 61.5197 186.938 61.3963 186.521 61.1497C186.106 60.9005 185.787 60.5509 185.563 60.1008C185.339 59.6482 185.228 59.1193 185.228 58.5142C185.228 57.9115 185.339 57.3814 185.563 56.9237C185.787 56.466 186.101 56.1087 186.505 55.8519C186.91 55.5951 187.381 55.4667 187.92 55.4667C188.248 55.4667 188.566 55.5201 188.874 55.6269C189.181 55.7337 189.457 55.9041 189.701 56.138C189.948 56.3719 190.143 56.6758 190.285 57.0496C190.43 57.4208 190.502 57.8734 190.502 58.4074V58.8078H185.872V57.9687H189.423C189.423 57.6636 189.361 57.3916 189.236 57.1525C189.114 56.9135 188.941 56.7254 188.717 56.588C188.494 56.4507 188.231 56.3821 187.928 56.3821C187.6 56.3821 187.315 56.4622 187.074 56.6224C186.832 56.7826 186.645 56.9923 186.513 57.2517C186.383 57.5085 186.318 57.7857 186.318 58.0832V58.7201C186.318 59.1219 186.388 59.4639 186.528 59.7461C186.671 60.0258 186.869 60.2394 187.123 60.3869C187.377 60.5318 187.674 60.6043 188.012 60.6043C188.236 60.6043 188.438 60.5738 188.618 60.5127C188.799 60.4492 188.954 60.3538 189.084 60.2267C189.216 60.0996 189.318 59.9419 189.389 59.7537L190.426 59.9597C190.34 60.2725 190.186 60.5458 189.965 60.7797C189.743 61.0137 189.466 61.1955 189.133 61.3252C188.803 61.4548 188.428 61.5197 188.008 61.5197Z" fill="#565A58"/>
<path d="M181.865 61.5197C181.291 61.5197 180.795 61.3963 180.378 61.1497C179.963 60.9005 179.644 60.5509 179.421 60.1008C179.197 59.6482 179.085 59.1193 179.085 58.5142C179.085 57.9115 179.197 57.3814 179.421 56.9237C179.644 56.466 179.958 56.1087 180.363 55.8519C180.767 55.5951 181.239 55.4667 181.778 55.4667C182.106 55.4667 182.424 55.5201 182.731 55.6269C183.039 55.7337 183.315 55.9041 183.559 56.138C183.806 56.3719 184 56.6758 184.142 57.0496C184.287 57.4208 184.36 57.8734 184.36 58.4074V58.8078H179.73V57.9687H183.28C183.28 57.6636 183.218 57.3916 183.094 57.1525C182.972 56.9135 182.799 56.7254 182.575 56.588C182.351 56.4507 182.088 56.3821 181.785 56.3821C181.457 56.3821 181.173 56.4622 180.931 56.6224C180.689 56.7826 180.503 56.9923 180.37 57.2517C180.241 57.5085 180.176 57.7857 180.176 58.0832V58.7201C180.176 59.1219 180.246 59.4639 180.386 59.7461C180.528 60.0258 180.726 60.2394 180.981 60.3869C181.235 60.5318 181.531 60.6043 181.869 60.6043C182.093 60.6043 182.295 60.5738 182.476 60.5127C182.656 60.4492 182.811 60.3538 182.941 60.2267C183.073 60.0996 183.175 59.9419 183.246 59.7537L184.284 59.9597C184.197 60.2725 184.043 60.5458 183.822 60.7797C183.601 61.0137 183.324 61.1955 182.991 61.3252C182.66 61.4548 182.285 61.5197 181.865 61.5197Z" fill="#565A58"/>
<path d="M175.879 61.5197C175.317 61.5197 174.832 61.3913 174.426 61.1344C174.021 60.8751 173.71 60.5178 173.491 60.0627C173.272 59.6075 173.163 59.0863 173.163 58.4989C173.163 57.9039 173.275 57.3788 173.499 56.9237C173.722 56.466 174.037 56.1087 174.441 55.8519C174.845 55.5951 175.321 55.4667 175.867 55.4667C176.305 55.4667 176.696 55.5481 177.042 55.7108C177.388 55.871 177.668 56.0973 177.881 56.3897C178.095 56.6796 178.223 57.019 178.266 57.4081H177.198C177.137 57.1335 176.995 56.897 176.771 56.6987C176.55 56.4978 176.255 56.3973 175.886 56.3973C175.561 56.3973 175.276 56.4825 175.032 56.6529C174.79 56.8207 174.602 57.061 174.468 57.3738C174.333 57.684 174.265 58.0501 174.265 58.4722C174.265 58.9045 174.331 59.2783 174.464 59.5936C174.596 59.9089 174.784 60.153 175.028 60.3259C175.272 60.4988 175.558 60.5852 175.886 60.5852C176.108 60.5852 176.307 60.5458 176.485 60.467C176.666 60.3856 176.817 60.2699 176.939 60.1199C177.064 59.9699 177.15 59.7881 177.198 59.5745H178.266C178.223 59.9483 178.099 60.2814 177.893 60.5738C177.689 60.8662 177.417 61.0976 177.076 61.2679C176.736 61.4358 176.336 61.5197 175.879 61.5197Z" fill="#565A58"/>
<path d="M169.956 61.5197C169.394 61.5197 168.91 61.3913 168.503 61.1344C168.098 60.8751 167.787 60.5178 167.568 60.0627C167.35 59.6075 167.24 59.0863 167.24 58.4989C167.24 57.9039 167.352 57.3788 167.576 56.9237C167.8 56.466 168.114 56.1087 168.518 55.8519C168.922 55.5951 169.398 55.4667 169.944 55.4667C170.382 55.4667 170.773 55.5481 171.119 55.7108C171.465 55.871 171.745 56.0973 171.958 56.3897C172.172 56.6796 172.3 57.019 172.343 57.4081H171.276C171.215 57.1335 171.072 56.897 170.848 56.6987C170.627 56.4978 170.332 56.3973 169.964 56.3973C169.638 56.3973 169.353 56.4825 169.109 56.6529C168.868 56.8207 168.679 57.061 168.545 57.3738C168.41 57.684 168.343 58.0501 168.343 58.4722C168.343 58.9045 168.409 59.2783 168.541 59.5936C168.673 59.9089 168.861 60.153 169.105 60.3259C169.349 60.4988 169.635 60.5852 169.964 60.5852C170.185 60.5852 170.384 60.5458 170.562 60.467C170.743 60.3856 170.894 60.2699 171.016 60.1199C171.141 59.9699 171.227 59.7881 171.276 59.5745H172.343C172.3 59.9483 172.176 60.2814 171.97 60.5738C171.766 60.8662 171.494 61.0976 171.153 61.2679C170.813 61.4358 170.414 61.5197 169.956 61.5197Z" fill="#565A58"/>
<path d="M165.02 58.9795V55.543H166.114V61.4014H165.039V60.3907H164.978C164.841 60.7009 164.624 60.9603 164.329 61.1688C164.037 61.3747 163.67 61.4777 163.227 61.4777C162.856 61.4777 162.525 61.3951 162.236 61.2298C161.948 61.0645 161.722 60.8179 161.557 60.4898C161.394 60.1618 161.312 59.755 161.312 59.2693V55.543H162.403V59.1473C162.406 59.5516 162.519 59.8745 162.743 60.1161C162.969 60.3551 163.26 60.4746 163.616 60.4746C163.832 60.4746 164.048 60.4212 164.265 60.3144C164.481 60.2051 164.66 60.0398 164.802 59.8186C164.947 59.5973 165.02 59.3176 165.02 58.9795Z" fill="#565A58"/>
<path d="M158.931 55.6193C158.888 55.2556 158.717 54.9734 158.417 54.7725C158.116 54.5691 157.74 54.4674 157.288 54.4674C156.962 54.4674 156.68 54.5183 156.441 54.62C156.202 54.7217 156.016 54.8628 155.884 55.0433C155.754 55.2213 155.689 55.4235 155.689 55.6498C155.689 55.8405 155.734 56.0045 155.823 56.1418C155.914 56.2791 156.033 56.3935 156.178 56.4851C156.325 56.5766 156.481 56.6529 156.647 56.7139C156.815 56.7724 156.975 56.8207 157.127 56.8588L157.894 57.061C158.136 57.1195 158.386 57.2008 158.645 57.3051C158.905 57.4093 159.146 57.5454 159.37 57.7132C159.596 57.881 159.779 58.0908 159.919 58.3425C160.059 58.5943 160.13 58.8968 160.133 59.2503C160.13 59.6876 160.016 60.0779 159.79 60.4212C159.566 60.7645 159.239 61.0353 158.809 61.2336C158.382 61.4319 157.863 61.5311 157.253 61.5311C156.673 61.5311 156.171 61.4396 155.747 61.2565C155.325 61.0734 154.993 60.8128 154.751 60.4746C154.512 60.1364 154.38 59.7347 154.354 59.2693H155.499C155.522 59.5567 155.614 59.7944 155.777 59.9826C155.94 60.1682 156.15 60.3068 156.406 60.3983C156.663 60.4899 156.944 60.5356 157.249 60.5356C157.588 60.5356 157.889 60.4822 158.153 60.3754C158.42 60.2661 158.63 60.1148 158.783 59.9216C158.938 59.7258 159.015 59.4982 159.015 59.2388C159.015 59.0024 158.948 58.8091 158.813 58.6591C158.681 58.5065 158.502 58.3819 158.275 58.2853C158.049 58.1887 157.797 58.1022 157.52 58.026L156.59 57.7704C155.967 57.5975 155.473 57.347 155.11 57.019C154.746 56.6885 154.566 56.2537 154.568 55.7146C154.566 55.2671 154.685 54.8768 154.927 54.5437C155.171 54.208 155.5 53.9474 155.914 53.7618C156.331 53.5762 156.798 53.4834 157.314 53.4834C157.838 53.4834 158.301 53.5762 158.703 53.7618C159.107 53.9449 159.425 54.1979 159.656 54.5208C159.89 54.8412 160.013 55.2073 160.026 55.6193H158.931Z" fill="#565A58"/>
<path d="M149.816 61.4739C149.613 61.4739 149.437 61.4001 149.29 61.2527C149.142 61.1052 149.068 60.9297 149.068 60.7263C149.068 60.5204 149.142 60.3449 149.29 60.2C149.437 60.0525 149.613 59.9788 149.816 59.9788C150.019 59.9788 150.195 60.0525 150.342 60.2C150.49 60.3449 150.563 60.5204 150.563 60.7263C150.563 60.8611 150.529 60.9857 150.461 61.1001C150.392 61.212 150.302 61.3022 150.19 61.3709C150.078 61.4396 149.953 61.4739 149.816 61.4739Z" fill="#565A58"/>
<path d="M145.454 61.5197C144.88 61.5197 144.384 61.3963 143.967 61.1497C143.552 60.9005 143.233 60.5509 143.009 60.1008C142.786 59.6482 142.674 59.1193 142.674 58.5142C142.674 57.9115 142.786 57.3814 143.009 56.9237C143.233 56.466 143.547 56.1087 143.952 55.8519C144.356 55.5951 144.828 55.4667 145.367 55.4667C145.695 55.4667 146.012 55.5201 146.32 55.6269C146.628 55.7337 146.904 55.9041 147.148 56.138C147.394 56.3719 147.589 56.6758 147.731 57.0496C147.876 57.4208 147.949 57.8734 147.949 58.4074V58.8078H143.318V57.9687H146.869C146.869 57.6636 146.807 57.3916 146.682 57.1525C146.56 56.9135 146.387 56.7254 146.164 56.588C145.94 56.4507 145.677 56.3821 145.374 56.3821C145.046 56.3821 144.761 56.4622 144.52 56.6224C144.278 56.7826 144.091 56.9923 143.959 57.2517C143.83 57.5085 143.765 57.7857 143.765 58.0832V58.7201C143.765 59.1219 143.835 59.4639 143.974 59.7461C144.117 60.0258 144.315 60.2394 144.569 60.3869C144.824 60.5318 145.12 60.6043 145.458 60.6043C145.682 60.6043 145.884 60.5738 146.065 60.5127C146.245 60.4492 146.4 60.3538 146.53 60.2267C146.662 60.0996 146.764 59.9419 146.835 59.7537L147.872 59.9597C147.786 60.2725 147.632 60.5458 147.411 60.7797C147.19 61.0137 146.913 61.1955 146.579 61.3252C146.249 61.4548 145.874 61.5197 145.454 61.5197Z" fill="#565A58"/>
<path d="M142.218 55.543L140.082 61.4014H138.923L136.787 55.543H137.962L139.472 60.0856H139.533L141.044 55.543H142.218Z" fill="#565A58"/>
<path d="M133.798 61.5197C133.223 61.5197 132.728 61.3963 132.311 61.1497C131.896 60.9005 131.577 60.5509 131.353 60.1008C131.129 59.6482 131.018 59.1193 131.018 58.5142C131.018 57.9115 131.129 57.3814 131.353 56.9237C131.577 56.466 131.891 56.1087 132.295 55.8519C132.7 55.5951 133.171 55.4667 133.71 55.4667C134.038 55.4667 134.356 55.5201 134.664 55.6269C134.972 55.7337 135.247 55.9041 135.492 56.138C135.738 56.3719 135.933 56.6758 136.075 57.0496C136.22 57.4208 136.292 57.8734 136.292 58.4074V58.8078H131.662V57.9687H135.213C135.213 57.6636 135.151 57.3916 135.026 57.1525C134.904 56.9135 134.731 56.7254 134.507 56.588C134.284 56.4507 134.021 56.3821 133.718 56.3821C133.39 56.3821 133.105 56.4622 132.864 56.6224C132.622 56.7826 132.435 56.9923 132.303 57.2517C132.173 57.5085 132.108 57.7857 132.108 58.0832V58.7201C132.108 59.1219 132.178 59.4639 132.318 59.7461C132.461 60.0258 132.659 60.2394 132.913 60.3869C133.167 60.5318 133.464 60.6043 133.802 60.6043C134.026 60.6043 134.228 60.5738 134.408 60.5127C134.589 60.4492 134.744 60.3538 134.874 60.2267C135.006 60.0996 135.108 59.9419 135.179 59.7537L136.216 59.9597C136.13 60.2725 135.976 60.5458 135.755 60.7797C135.533 61.0137 135.256 61.1955 134.923 61.3252C134.593 61.4548 134.218 61.5197 133.798 61.5197Z" fill="#565A58"/>
<path d="M128.803 61.4014V55.543H129.894V61.4014H128.803ZM129.356 54.6238C129.163 54.6238 128.996 54.5589 128.856 54.4293C128.719 54.2996 128.65 54.1432 128.65 53.9601C128.65 53.7771 128.719 53.6207 128.856 53.491C128.996 53.3588 129.163 53.2927 129.356 53.2927C129.549 53.2927 129.715 53.3588 129.852 53.491C129.989 53.6207 130.058 53.7771 130.058 53.9601C130.058 54.1432 129.989 54.2996 129.852 54.4293C129.715 54.5589 129.549 54.6238 129.356 54.6238Z" fill="#565A58"/>
<path d="M123.614 57.9153V61.4014H122.523V53.5901H123.603V56.4889H123.679C123.814 56.1761 124.021 55.9282 124.301 55.7451C124.583 55.5595 124.952 55.4667 125.407 55.4667C125.809 55.4667 126.16 55.5493 126.46 55.7146C126.762 55.8773 126.997 56.1227 127.165 56.4507C127.333 56.7762 127.416 57.1843 127.413 57.675V61.4014H126.322V57.7971C126.322 57.3597 126.209 57.0216 125.983 56.7825C125.759 56.541 125.448 56.4202 125.048 56.4202C124.771 56.4202 124.525 56.4787 124.308 56.5957C124.095 56.7126 123.926 56.883 123.801 57.1067C123.679 57.328 123.617 57.5975 123.614 57.9153Z" fill="#565A58"/>
<path d="M119.05 61.5197C118.488 61.5197 118.003 61.3913 117.596 61.1344C117.192 60.8751 116.881 60.5178 116.662 60.0627C116.443 59.6075 116.334 59.0863 116.334 58.4989C116.334 57.9039 116.446 57.3788 116.67 56.9237C116.893 56.466 117.207 56.1087 117.612 55.8519C118.016 55.5951 118.491 55.4667 119.038 55.4667C119.476 55.4667 119.867 55.5481 120.213 55.7108C120.559 55.871 120.838 56.0973 121.052 56.3897C121.266 56.6796 121.394 57.019 121.437 57.4081H120.369C120.308 57.1335 120.166 56.897 119.942 56.6987C119.721 56.4978 119.426 56.3973 119.057 56.3973C118.732 56.3973 118.447 56.4825 118.203 56.6529C117.961 56.8207 117.773 57.061 117.638 57.3738C117.504 57.684 117.436 58.0501 117.436 58.4722C117.436 58.9045 117.502 59.2783 117.635 59.5936C117.767 59.9089 117.955 60.153 118.199 60.3259C118.443 60.4988 118.729 60.5852 119.057 60.5852C119.278 60.5852 119.478 60.5458 119.656 60.467C119.837 60.3856 119.988 60.2699 120.11 60.1199C120.235 59.9699 120.321 59.7881 120.369 59.5745H121.437C121.394 59.9483 121.269 60.2814 121.063 60.5738C120.86 60.8662 120.588 61.0976 120.247 61.2679C119.907 61.4358 119.507 61.5197 119.05 61.5197Z" fill="#565A58"/>
<path d="M110.058 61.4014H108.86L111.683 53.5901H112.964L115.787 61.4014H114.589L112.354 54.9709H112.293L110.058 61.4014ZM110.298 58.3463H114.345V59.3037H110.298V58.3463Z" fill="#565A58"/>
<path d="M104.612 61.4739C104.408 61.4739 104.233 61.4001 104.085 61.2527C103.938 61.1052 103.864 60.9297 103.864 60.7263C103.864 60.5204 103.938 60.3449 104.085 60.2C104.233 60.0525 104.408 59.9788 104.612 59.9788C104.815 59.9788 104.991 60.0525 105.138 60.2C105.286 60.3449 105.359 60.5204 105.359 60.7263C105.359 60.8611 105.325 60.9857 105.256 61.1001C105.188 61.212 105.097 61.3022 104.986 61.3709C104.874 61.4396 104.749 61.4739 104.612 61.4739Z" fill="#565A58"/>
<path d="M98.7432 57.9154V61.4014H97.6523V55.543H98.7012V56.4889H98.7775C98.9123 56.1812 99.122 55.9346 99.4068 55.7489C99.6942 55.5608 100.058 55.4667 100.498 55.4667C100.899 55.4667 101.249 55.5506 101.547 55.7184C101.847 55.8837 102.079 56.1304 102.245 56.4584C102.41 56.7838 102.492 57.1894 102.492 57.6751V61.4014H101.398V57.7971C101.4 57.3649 101.288 57.0279 101.062 56.7864C100.838 56.5423 100.531 56.4202 100.139 56.4202C99.8696 56.4202 99.6293 56.4787 99.4183 56.5957C99.2098 56.7126 99.0458 56.883 98.9263 57.1068C98.8067 57.328 98.7457 57.5975 98.7432 57.9154Z" fill="#565A58"/>
<path d="M93.7129 61.4014V55.543H94.7694V56.466H94.8304C94.9372 56.1558 95.1266 55.9104 95.3987 55.7299C95.6708 55.5468 95.9797 55.4553 96.3255 55.4553C96.3942 55.4553 96.4768 55.4578 96.5735 55.4629C96.6726 55.4654 96.7502 55.4705 96.8061 55.4781V56.5346C96.7654 56.5245 96.6866 56.5105 96.5696 56.4927C96.4552 56.4749 96.3395 56.466 96.2226 56.466C95.9505 56.466 95.7077 56.5232 95.4941 56.6376C95.2805 56.7521 95.1114 56.9097 94.9868 57.1106C94.8647 57.3115 94.8037 57.5416 94.8037 57.8009V61.4014H93.7129Z" fill="#565A58"/>
<path d="M89.4775 61.5311C89.1062 61.5311 88.7706 61.4625 88.4705 61.3252C88.1705 61.1853 87.9328 60.9832 87.7573 60.7187C87.5819 60.4517 87.4941 60.1275 87.4941 59.7461C87.4941 59.413 87.5577 59.1409 87.6848 58.9299C87.8145 58.7163 87.9874 58.5472 88.2036 58.4226C88.4222 58.298 88.6651 58.2052 88.9321 58.1442C89.199 58.0806 89.4711 58.0323 89.7483 57.9993C90.0992 57.956 90.384 57.9217 90.6026 57.8963C90.8213 57.8709 90.9802 57.8289 91.0794 57.7704C91.1811 57.7094 91.232 57.609 91.232 57.4691V57.4386C91.232 57.1004 91.1366 56.8372 90.9459 56.6491C90.7552 56.4609 90.4717 56.3668 90.0954 56.3668C89.7012 56.3668 89.391 56.4533 89.1647 56.6262C88.941 56.7966 88.7858 56.986 88.6994 57.1945L87.6696 56.9389C87.8018 56.583 87.9912 56.2969 88.2379 56.0808C88.4871 55.8646 88.7693 55.7083 89.0846 55.6116C89.4025 55.515 89.7317 55.4667 90.0725 55.4667C90.2988 55.4667 90.5416 55.4934 90.801 55.5468C91.0603 55.6002 91.3057 55.6981 91.5371 55.8405C91.7685 55.9829 91.9579 56.1901 92.1054 56.4622C92.2529 56.7317 92.3266 57.0839 92.3266 57.5187V61.4014H91.2548V60.6043H91.2091C91.1404 60.7441 91.0323 60.8865 90.8849 61.0315C90.7399 61.1739 90.5505 61.2934 90.3166 61.39C90.0852 61.4841 89.8055 61.5311 89.4775 61.5311ZM89.7025 60.6386C90.028 60.6386 90.3051 60.575 90.534 60.4479C90.7628 60.3208 90.937 60.1542 91.0565 59.9483C91.176 59.7423 91.2358 59.5224 91.2358 59.2884V58.518C91.1951 58.5612 91.115 58.5993 90.9955 58.6324C90.8785 58.6655 90.7437 58.6947 90.5912 58.7201C90.4412 58.7456 90.2937 58.7684 90.1487 58.7888C90.0064 58.8066 89.8881 58.8218 89.794 58.8345C89.5728 58.8651 89.3681 58.9134 89.18 58.9795C88.9944 59.0431 88.8456 59.1384 88.7337 59.2655C88.6218 59.3901 88.5659 59.5567 88.5659 59.7652C88.5659 60.0525 88.6727 60.2699 88.8863 60.4174C89.0999 60.5649 89.3719 60.6386 89.7025 60.6386Z" fill="#565A58"/>
<path d="M84.1398 61.5197C83.5652 61.5197 83.0694 61.3963 82.6524 61.1497C82.2379 60.9005 81.9188 60.5509 81.695 60.1008C81.4713 59.6482 81.3594 59.1193 81.3594 58.5142C81.3594 57.9115 81.4713 57.3814 81.695 56.9237C81.9188 56.466 82.2328 56.1087 82.6371 55.8519C83.0414 55.5951 83.5131 55.4667 84.0521 55.4667C84.3801 55.4667 84.698 55.5201 85.0056 55.6269C85.3133 55.7337 85.5892 55.9041 85.8333 56.138C86.0799 56.3719 86.2745 56.6758 86.4169 57.0496C86.5618 57.4208 86.6343 57.8734 86.6343 58.4074V58.8078H82.004V57.9687H85.5549C85.5549 57.6636 85.4926 57.3916 85.368 57.1525C85.2459 56.9135 85.073 56.7254 84.8493 56.588C84.6255 56.4507 84.3623 56.3821 84.0598 56.3821C83.7317 56.3821 83.447 56.4622 83.2054 56.6224C82.9638 56.7826 82.7769 56.9923 82.6447 57.2517C82.515 57.5085 82.4502 57.7857 82.4502 58.0832V58.7201C82.4502 59.1219 82.5201 59.4639 82.66 59.7461C82.8024 60.0258 83.0007 60.2394 83.255 60.3869C83.5093 60.5318 83.8055 60.6043 84.1437 60.6043C84.3674 60.6043 84.5696 60.5738 84.7501 60.5127C84.9306 60.4492 85.0857 60.3538 85.2154 60.2267C85.3476 60.0996 85.4494 59.9419 85.5205 59.7537L86.558 59.9597C86.4715 60.2725 86.3177 60.5458 86.0965 60.7797C85.8753 61.0137 85.5981 61.1955 85.265 61.3252C84.9345 61.4548 84.5594 61.5197 84.1398 61.5197Z" fill="#565A58"/>
<path d="M75.8311 61.4014V53.5901H76.9677V60.425H80.5224V61.4014H75.8311Z" fill="#565A58"/>
</svg>
