<svg width="112" height="112" viewBox="0 0 112 112" fill="none" xmlns="http://www.w3.org/2000/svg">
<g id="Group 41086">
<circle id="Ellipse 328" cx="56" cy="56" r="55.5789" stroke="url(#paint0_linear_440_3058)" stroke-opacity="0.2" stroke-width="0.842105"/>
<circle id="Ellipse 330" cx="56.0003" cy="56.0001" r="44.5961" transform="rotate(-106.389 56.0003 56.0001)" stroke="url(#paint1_linear_440_3058)" stroke-opacity="0.2" stroke-width="0.842105"/>
<circle id="Ellipse 329" cx="55.9994" cy="56.0004" r="37.8947" fill="white" fill-opacity="0.41" stroke="url(#paint2_linear_440_3058)" stroke-width="0.842105"/>
<g id="global-learning--global-learning-education">
<path id="Union" fill-rule="evenodd" clip-rule="evenodd" d="M36.6777 51.1895C37.5963 42.3055 44.8247 35.2942 53.805 34.7138C53.7004 34.7978 53.6039 34.8933 53.5178 34.9993C49.7418 39.6426 47.3948 45.2665 46.7387 51.1895H36.6777ZM47.8863 62.0567C47.8863 62.1916 47.8914 62.3256 47.9013 62.4586V70.119C41.8137 67.5713 37.3835 61.8514 36.6777 55.026H46.7387C46.9633 57.0532 47.3859 59.0454 47.9961 60.9751C47.9239 61.3266 47.8863 61.6886 47.8863 62.0567ZM50.602 55.026H55.9742L51.1221 57.1283C51.0698 57.151 51.0181 57.1744 50.9668 57.1985C50.8163 56.481 50.6945 55.7563 50.602 55.026ZM73.3461 51.1895H63.2734C62.6173 45.2665 60.2702 39.6426 56.4943 34.9993C56.4078 34.893 56.3111 34.7972 56.2061 34.713C65.1922 35.2876 72.4269 42.3013 73.3461 51.1895ZM50.602 51.1895H59.4101C58.8771 46.9792 57.3678 42.953 55.0061 39.4321C52.6442 42.953 51.1351 46.9792 50.602 51.1895ZM66.296 55.3075C65.871 55.1233 65.3886 55.1233 64.9636 55.3075L52.768 60.5915C52.6391 60.6474 52.5198 60.7182 52.4117 60.8014C51.7717 61.1599 51.3392 61.8445 51.3392 62.6302V71.9252C51.3392 73.082 52.277 74.0196 53.4338 74.0196C54.5906 74.0196 55.5284 73.082 55.5284 71.9252V64.8627L64.9636 68.9509C65.3886 69.135 65.871 69.135 66.296 68.9509L78.4916 63.6667C79.1045 63.4011 79.5011 62.797 79.5011 62.1291C79.5011 61.4612 79.1045 60.8571 78.4916 60.5915L66.296 55.3075ZM57.2944 69.1485L63.506 71.8399C64.8604 72.4267 66.3974 72.4267 67.7519 71.8399L73.9633 69.1485L73.9642 73.3183C73.9642 73.6845 73.8445 74.0405 73.6229 74.3324L72.29 73.3196C73.6229 74.3324 73.6217 74.3336 73.6217 74.3336L73.6208 74.3352L73.618 74.3385L73.6125 74.3459L73.599 74.3631L73.5619 74.4091C73.533 74.4447 73.4949 74.4898 73.448 74.5429C73.3544 74.6491 73.2239 74.7879 73.0557 74.9481C72.7197 75.2685 72.2292 75.6767 71.5733 76.0791C70.2511 76.8906 68.2859 77.6588 65.6284 77.6588C62.9707 77.6588 61.0076 76.8906 59.6871 76.0782C59.0323 75.6755 58.543 75.2667 58.2077 74.9459C58.04 74.7854 57.91 74.6464 57.8164 74.5402C57.7696 74.4868 57.7318 74.4417 57.7028 74.4061L57.6659 74.36L57.6523 74.3425L57.6467 74.3352L57.6442 74.3318L57.6431 74.3302C57.6431 74.3302 57.6419 74.3287 58.9785 73.3189L57.6419 74.3287C57.4229 74.039 57.304 73.6857 57.3032 73.322L57.2944 69.1485Z" fill="#0C434B"/>
</g>
</g>
<defs>
<linearGradient id="paint0_linear_440_3058" x1="100.308" y1="20.9231" x2="35.0769" y2="-10.4615" gradientUnits="userSpaceOnUse">
<stop stop-color="#259D4A"/>
<stop offset="1" stop-color="#259D4A" stop-opacity="0"/>
</linearGradient>
<linearGradient id="paint1_linear_440_3058" x1="91.6182" y1="27.8025" x2="39.1807" y2="2.57313" gradientUnits="userSpaceOnUse">
<stop stop-color="#259D4A"/>
<stop offset="1" stop-color="#259D4A" stop-opacity="0"/>
</linearGradient>
<linearGradient id="paint2_linear_440_3058" x1="86.3152" y1="32.0004" x2="41.6836" y2="10.5267" gradientUnits="userSpaceOnUse">
<stop stop-color="#259D4A"/>
<stop offset="1" stop-color="#259D4A" stop-opacity="0"/>
</linearGradient>
</defs>
</svg>
