<svg width="579" height="14" viewBox="0 0 579 14" fill="none" xmlns="http://www.w3.org/2000/svg">
<path d="M553.886 7.8434C551.728 7.79683 549.787 7.81777 547.63 7.7712C544.826 7.73162 542.021 7.6222 539.001 7.58494C534.255 7.49646 529.507 7.26831 524.975 6.96801C520.01 6.60253 515.259 6.09507 510.722 5.37578C509.858 5.24542 508.993 5.04524 507.914 4.98704C506.834 4.85901 505.97 4.72865 504.89 4.60062C503.379 4.40741 502.083 4.28171 500.572 4.15833C498.845 4.03728 497.118 3.91623 495.392 3.86501C493.882 3.81146 492.372 3.82775 490.863 3.84403C489.353 3.86032 488.06 3.94411 486.55 3.96039C484.61 4.05116 482.671 4.21176 480.732 4.44219C478.794 4.67263 476.855 4.90306 474.917 5.20332C471.687 5.72703 468.459 6.32058 465.23 6.91412C463.723 7.20973 462.432 7.50301 460.926 7.86845C459.205 8.23622 457.483 8.60399 455.762 8.97175C454.471 9.26504 452.964 9.49082 451.456 9.71659C450.595 9.86556 449.518 9.94702 448.44 10.0285C447.362 10.11 446.5 10.1193 445.422 10.2007C444.775 10.2077 444.128 10.2147 443.696 10.1495C442.833 10.089 441.969 10.0284 441.106 9.96792C439.811 9.84222 438.514 9.64669 437.218 9.45115C434.626 9.06008 432.249 8.66669 429.657 8.27562C426.416 7.75186 423.391 7.29562 419.935 6.84402C417.992 6.58564 415.833 6.39941 413.889 6.21085C411.083 5.96177 408.494 5.85003 405.688 5.74061C403.099 5.62886 400.295 5.65911 397.707 5.61719C394.688 5.64976 391.669 5.75216 388.651 5.9244C384.772 6.17576 381.108 6.42481 377.229 6.74601C373.782 7.06255 370.335 7.44893 367.104 7.90281C363.875 8.42653 360.645 8.95024 357.416 9.54379C353.757 10.2118 350.098 10.8798 346.22 11.3407C344.713 11.5665 343.204 11.6526 341.48 11.8109C339.757 11.9691 337.816 11.9901 335.875 12.011C333.934 12.032 332.207 11.9109 330.265 11.7922C328.322 11.6735 326.594 11.4127 324.866 11.152C320.761 10.4979 317.085 9.62967 313.409 8.76142C311.246 8.22604 309.083 7.69065 306.921 7.15527C305.191 6.75489 303.245 6.28701 301.299 5.88896C299.354 5.49091 297.194 5.16502 295.033 4.83913C293.953 4.7111 293.089 4.58075 292.01 4.52255C290.715 4.39684 289.204 4.3433 287.91 4.28743C287.263 4.2944 286.831 4.29906 286.184 4.30604C285.753 4.31069 285.322 4.31534 284.891 4.31999C283.813 4.40146 282.736 4.55275 281.659 4.70405C277.784 5.3744 274.126 6.18209 270.685 7.05729C268.964 7.49489 267.459 7.93016 265.955 8.43526C264.88 8.79605 263.805 9.087 262.73 9.44779C259.936 10.316 257.359 11.3216 254.348 12.1223C253.057 12.4156 251.766 12.7088 250.259 13.0044C249.398 13.1534 248.536 13.2326 247.674 13.3117C247.459 13.314 247.028 13.3885 246.812 13.3908C246.165 13.3978 245.519 13.4746 245.088 13.4793C244.872 13.4816 244.441 13.4862 244.225 13.4886L244.01 13.4909C243.578 13.4956 242.931 13.5025 242.499 13.4374C241.42 13.3792 240.557 13.3186 239.478 13.2604C237.535 13.0719 235.591 12.8833 233.647 12.6249C232.136 12.4317 230.624 12.2385 229.111 11.9755C228.031 11.8474 226.951 11.6496 225.871 11.5216C224.143 11.2608 222.63 10.9978 220.902 10.7371C220.038 10.6067 219.174 10.4764 218.525 10.3437C217.012 10.0807 215.499 9.74779 214.202 9.48242C213.122 9.28456 212.041 9.0867 210.96 8.81901C208.15 8.2906 205.555 7.69004 202.746 7.16163C196.909 5.96749 190.858 4.77567 184.378 3.93766C182.866 3.74445 181.571 3.61875 180.059 3.42554C178.331 3.23466 176.389 3.11593 174.447 3.06704C173.585 3.07634 172.937 3.01349 172.074 3.0228C170.78 3.03676 169.702 3.04839 168.409 3.13218C166.684 3.22062 164.96 3.37889 163.453 3.60467C161.731 3.90261 160.009 4.27037 158.504 4.63581C155.922 5.29221 153.774 6.08362 151.626 6.87502C150.551 7.23581 149.478 7.66643 148.403 8.02722C147.114 8.46016 145.608 8.89543 144.319 9.32838C143.029 9.69149 141.954 9.98245 140.446 10.2082C139.151 10.0825 138.29 10.2315 137.428 10.3106C136.566 10.3898 135.704 10.4689 134.841 10.4782C134.194 10.4852 133.763 10.4898 133.115 10.427C132.252 10.3665 131.604 10.3036 130.74 10.1733C130.092 10.0406 129.227 9.91021 128.579 9.77753C127.93 9.57502 127.281 9.3725 126.847 9.16766C125.764 8.76031 124.681 8.35295 123.814 7.94327C122.948 7.60342 122.082 7.33341 121.431 6.99123C120.565 6.65138 119.482 6.24403 118.616 5.90418C116.667 5.15697 114.503 4.55176 112.124 3.94887C110.394 3.54849 108.45 3.22028 106.505 2.89206C104.562 2.7035 102.835 2.58245 100.893 2.46373C98.0883 2.42414 95.5004 2.45206 92.6976 2.55213C88.3867 2.80815 84.2938 3.27134 80.2023 3.87419C76.5421 4.47239 73.0976 5.06826 69.6546 5.8038C67.9331 6.17156 66.2116 6.53933 64.4909 6.97693C62.7694 7.34469 61.0486 7.78229 59.3271 8.15006C57.6064 8.58766 55.8849 8.95542 54.1634 9.32319C52.4419 9.69096 50.5047 10.061 48.5668 10.3613C44.9067 10.9595 41.0286 11.3505 37.146 11.3226C36.2834 11.3319 35.2043 11.2737 34.3417 11.283C33.2626 11.2248 32.3992 11.1643 31.5359 11.1037C30.6725 11.0432 29.8083 10.9129 29.1606 10.85C28.2965 10.7197 27.4323 10.5893 26.5689 10.5288C22.0348 10.0888 18.3611 9.43005 14.9023 8.69913C11.8756 8.03339 8.84806 7.29782 6.25037 6.41793C4.9519 6.01291 3.86909 5.60555 2.78628 5.1982C2.3527 4.99336 1.91912 4.78852 1.70045 4.51152C1.6997 4.44169 1.48254 4.30435 1.48178 4.23452C1.26386 4.02735 1.2616 3.81786 1.04369 3.61069C0.825015 3.3337 1.03766 3.05205 1.68237 2.83557C2.32784 2.68893 3.18972 2.60979 4.05311 2.67032C4.70084 2.73317 5.1329 2.79835 5.77988 2.79137C6.64327 2.8519 7.29175 2.98458 8.15589 3.11494C9.23644 3.3128 9.67303 3.79696 9.02982 4.1531C8.60076 4.36724 8.1702 4.44173 7.52398 4.51854C9.68884 5.26341 12.0686 5.93613 14.4484 6.60885C18.5564 7.54229 22.8779 8.2639 27.4142 8.91336C28.494 9.04139 29.5738 9.16942 30.6536 9.29745C31.9483 9.35332 33.4595 9.4767 34.7542 9.53257C36.0489 9.58844 37.1272 9.57681 38.4203 9.49302C39.2822 9.41388 39.9292 9.4069 40.7911 9.32777C42.0835 9.17415 43.1603 9.02285 44.2371 8.87156C46.3899 8.49914 48.5427 8.12672 50.4791 7.68679C52.8461 7.17239 54.9966 6.59047 57.3629 6.00623C59.5142 5.49415 61.8804 4.90991 64.2473 4.3955C66.6143 3.8811 68.9813 3.36669 71.349 2.92211C76.0844 2.03296 81.037 1.28114 85.9919 0.738812C91.1624 0.19416 96.7673 -0.0758204 102.377 0.143017C104.967 0.254762 107.341 0.438664 109.717 0.692397C112.093 1.01596 114.253 1.34185 116.199 1.80973C118.361 2.27529 120.309 2.88283 122.256 3.49037C123.338 3.82789 124.205 4.16774 125.071 4.50759C126.371 5.05228 127.67 5.52714 128.97 6.07183C130.487 6.68403 132.004 7.36605 133.952 7.9736C134.167 7.97127 134.168 8.0411 134.384 8.03877C134.599 8.03645 134.816 8.10395 135.031 8.10162L135.247 8.0993C135.678 8.09465 135.893 8.02249 136.325 8.01783C137.186 7.86887 138.047 7.7199 138.907 7.5011C141.273 6.91686 143.207 6.19761 145.14 5.47836C147.719 4.61247 150.297 3.67675 153.092 2.87837C154.383 2.51525 155.674 2.22197 156.965 1.92869C158.47 1.56325 160.193 1.33514 161.916 1.10704C163.424 0.88126 165.148 0.792818 166.872 0.634544C168.812 0.543775 170.968 0.45068 172.91 0.499573C174.635 0.480961 176.362 0.602011 177.872 0.655558C179.815 0.774282 181.758 0.962838 183.701 1.15139C187.372 1.53083 190.828 2.05226 194.069 2.57601C199.038 3.36047 203.578 4.35908 208.118 5.28786C210.28 5.75342 212.441 6.21897 214.819 6.6822C217.413 7.21293 220.006 7.67383 222.6 8.20456C222.816 8.27207 223.248 8.33724 223.464 8.33492C224.328 8.46527 225.192 8.59563 226.057 8.79582C227.353 8.99135 228.65 9.25672 230.162 9.44993C230.379 9.51743 230.81 9.51278 231.026 9.58028C231.891 9.71064 232.97 9.83867 233.835 9.96903C235.346 10.1622 237.075 10.4229 238.587 10.6162C240.098 10.8094 241.825 10.9304 243.552 11.0515C243.983 11.0468 244.199 11.0445 244.63 11.0398C244.846 11.0375 245.277 11.0329 245.493 11.0305C246.139 10.9537 246.785 10.8769 247.647 10.7978C248.723 10.5766 249.799 10.3555 250.875 10.0646C254.1 9.12186 256.893 8.11398 259.902 7.17361C261.837 6.59402 263.772 6.01444 265.707 5.43485C267.642 4.9251 269.579 4.48517 271.514 3.97542C273.666 3.46333 275.819 3.09091 277.971 2.64866C279.908 2.27857 282.278 2.04349 284.433 1.88056C285.51 1.7991 286.373 1.78979 287.452 1.84799C288.746 1.83403 290.041 1.8899 291.336 2.01561C293.494 2.13201 295.653 2.31823 297.597 2.57662C299.973 2.90019 302.133 3.22608 304.294 3.6218C307.32 4.21771 309.916 4.8881 312.727 5.55617C314.241 5.95887 315.971 6.35925 317.485 6.76195C318.783 7.09714 320.08 7.36251 321.377 7.69771C324.189 8.36577 326.998 8.89418 330.238 9.3481C331.75 9.54131 333.261 9.66468 334.987 9.7159C335.85 9.7066 336.498 9.76945 337.36 9.76015C338.007 9.75317 338.654 9.74619 339.516 9.66705C342.102 9.49947 344.472 9.26439 346.842 8.95947C348.78 8.65921 350.932 8.28679 352.87 7.98653C354.162 7.76308 355.238 7.54195 356.53 7.3185C357.606 7.09737 358.897 6.87392 360.189 6.65047C362.558 6.27572 364.926 5.90098 367.295 5.52623C369.879 5.14916 372.464 4.91175 375.05 4.67434C380.652 4.12503 386.256 3.78522 391.861 3.51524C394.663 3.34534 397.682 3.31277 400.486 3.28252C403.289 3.25228 406.094 3.3617 408.899 3.47112C413.862 3.6271 418.827 4.06241 423.578 4.63971C426.602 5.02613 429.411 5.4847 432.435 5.94095C435.892 6.46237 439.349 7.05363 443.021 7.57273C443.669 7.63558 444.533 7.69611 445.18 7.75896C445.612 7.75431 446.043 7.74965 446.474 7.745C447.552 7.66354 448.414 7.5844 449.49 7.43311C452.72 6.90939 455.516 6.18084 458.528 5.51979C461.54 4.78891 464.769 4.19536 467.998 3.60182C471.227 3.00827 474.673 2.55206 478.119 2.09586C481.996 1.63499 486.091 1.3813 490.188 1.26726C493.853 1.15788 497.521 1.258 500.975 1.5001C503.996 1.67702 507.02 2.06344 509.828 2.45218C511.124 2.64772 512.204 2.77575 513.5 2.97128C514.364 3.10164 515.013 3.23432 515.877 3.36468C516.958 3.56254 518.253 3.68824 519.334 3.8861C525.165 4.59143 531.208 4.94528 537.465 5.15713C540.701 5.2619 544.152 5.29451 547.604 5.39695C550.409 5.43653 553.429 5.4738 556.233 5.51338C562.057 5.59023 568.097 5.66475 573.919 5.53211C576.291 5.50652 578.023 6.11639 578.031 6.8147C578.038 7.51301 576.104 8.16243 573.948 8.18569C569.419 8.23454 564.889 8.14374 560.575 8.12044C558.2 7.93653 556.043 7.88997 553.886 7.8434ZM444.533 7.69611C444.748 7.69378 444.748 7.69378 444.964 7.69145C444.748 7.69378 444.533 7.69611 444.533 7.69611Z" fill="#EE9B4E"/>
</svg>
