<svg width="593" height="15" viewBox="0 0 593 15" fill="none" xmlns="http://www.w3.org/2000/svg">
<path d="M568.175 2.30456C565.959 2.37439 563.964 2.37439 561.747 2.44423C558.866 2.51406 555.984 2.65374 552.881 2.72357C548.005 2.86324 543.128 3.14258 538.474 3.49176C533.376 3.91077 528.5 4.46945 523.845 5.23764C522.958 5.37731 522.072 5.58681 520.963 5.65665C519.855 5.79632 518.969 5.93599 517.86 6.07566C516.309 6.28516 514.979 6.42483 513.427 6.5645C511.654 6.70417 509.881 6.84384 508.108 6.91368C506.556 6.98351 505.005 6.98351 503.453 6.98351C501.901 6.98351 500.572 6.91368 499.02 6.91368C497.025 6.84384 495.03 6.70417 493.035 6.49467C491.04 6.28516 489.046 6.07566 487.051 5.79632C483.726 5.30747 480.401 4.74879 477.076 4.19011C475.525 3.91077 474.195 3.63143 472.643 3.28225C470.87 2.93308 469.097 2.5839 467.324 2.23472C465.994 1.95538 464.442 1.74588 462.891 1.53637C462.004 1.3967 460.896 1.32687 459.788 1.25703C458.679 1.1872 457.793 1.1872 456.685 1.11736C456.02 1.11736 455.355 1.11736 454.911 1.1872C454.025 1.25703 453.138 1.32687 452.252 1.3967C450.922 1.53637 449.592 1.74588 448.262 1.95538C445.602 2.37439 443.164 2.79341 440.504 3.21242C437.179 3.7711 434.076 4.25994 430.53 4.74879C428.535 5.02813 426.318 5.23763 424.323 5.44714C421.442 5.72648 418.782 5.86615 415.901 6.00582C413.241 6.14549 410.359 6.14549 407.7 6.21533C404.596 6.21533 401.493 6.14549 398.39 6.00582C394.401 5.79632 390.632 5.58681 386.643 5.30747C383.096 5.02813 379.55 4.67895 376.225 4.25994C372.9 3.7711 369.576 3.28225 366.251 2.72357C362.483 2.09505 358.715 1.46654 354.725 1.04753C353.173 0.838022 351.622 0.768186 349.849 0.628516C348.075 0.488846 346.081 0.488846 344.086 0.488846C342.091 0.488846 340.318 0.628516 338.323 0.768186C336.328 0.907857 334.555 1.1872 332.782 1.46654C328.57 2.16489 324.802 3.07275 321.034 3.9806C318.818 4.53928 316.601 5.09796 314.384 5.65665C312.611 6.07566 310.616 6.5645 308.622 6.98351C306.627 7.40252 304.41 7.7517 302.194 8.10087C301.085 8.24055 300.199 8.38022 299.091 8.45005C297.761 8.58972 296.209 8.65956 294.879 8.72939C294.214 8.72939 293.771 8.72939 293.106 8.72939C292.663 8.72939 292.219 8.72939 291.776 8.72939C290.668 8.65956 289.56 8.51989 288.451 8.38022C284.462 7.7517 280.694 6.98351 277.147 6.14549C275.374 5.72648 273.822 5.30747 272.271 4.81862C271.163 4.46945 270.054 4.19011 268.946 3.84093C266.065 3.00291 263.405 2.02522 260.302 1.25703C258.972 0.977692 257.642 0.698351 256.09 0.419011C255.204 0.279341 254.317 0.209505 253.43 0.13967C253.209 0.13967 252.765 0.0698351 252.544 0.0698351C251.879 0.0698351 251.214 0 250.771 0C250.549 0 250.106 0 249.884 0H249.662C249.219 0 248.554 0 248.111 0.0698351C247.003 0.13967 246.116 0.209505 245.008 0.279341C243.013 0.488846 241.018 0.698351 239.023 0.977692C237.472 1.1872 235.92 1.3967 234.368 1.67604C233.26 1.81571 232.152 2.02522 231.044 2.16489C229.27 2.44423 227.719 2.72357 225.946 3.00291C225.059 3.14258 224.172 3.28225 223.508 3.42192C221.956 3.70126 220.404 4.05044 219.074 4.32978C217.966 4.53928 216.858 4.74879 215.75 5.02813C212.868 5.58681 210.208 6.21533 207.327 6.77401C201.342 8.03104 195.136 9.28807 188.487 10.1959C186.935 10.4054 185.605 10.5451 184.054 10.7546C182.28 10.9641 180.286 11.1038 178.291 11.1736C177.404 11.1736 176.739 11.2435 175.853 11.2435C174.523 11.2435 173.414 11.2435 172.084 11.1736C170.311 11.1038 168.538 10.9641 166.986 10.7546C165.213 10.4753 163.44 10.1261 161.888 9.77692C159.229 9.1484 157.012 8.38022 154.796 7.61203C153.687 7.26285 152.579 6.84384 151.471 6.49467C150.141 6.07566 148.589 5.65665 147.259 5.23764C145.93 4.88846 144.821 4.60912 143.27 4.39961C141.94 4.53928 141.053 4.39961 140.167 4.32978C139.28 4.25994 138.393 4.19011 137.507 4.19011C136.842 4.19011 136.399 4.19011 135.734 4.25994C134.847 4.32978 134.182 4.39961 133.295 4.53928C132.631 4.67895 131.744 4.81862 131.079 4.95829C130.414 5.1678 129.749 5.37731 129.306 5.58681C128.197 6.00582 127.089 6.42483 126.203 6.84384C125.316 7.19302 124.429 7.47236 123.764 7.82153C122.878 8.17071 121.77 8.58972 120.883 8.9389C118.888 9.70708 116.672 10.3356 114.233 10.9641C112.46 11.3831 110.465 11.7323 108.471 12.0815C106.476 12.291 104.702 12.4307 102.708 12.5703C99.8261 12.6402 97.1663 12.6402 94.2849 12.5703C89.8518 12.3608 85.6405 11.9418 81.4291 11.3831C77.661 10.8244 74.1146 10.2658 70.5682 9.56741C68.795 9.21824 67.0218 8.86906 65.2486 8.45005C63.4754 8.10087 61.7021 7.68186 59.9289 7.33269C58.1557 6.91368 56.3825 6.5645 54.6093 6.21533C52.8361 5.86615 50.8412 5.51698 48.8464 5.23764C45.0783 4.67895 41.0886 4.32978 37.0989 4.39961C36.2123 4.39961 35.104 4.46945 34.2174 4.46945C33.1091 4.53928 32.2225 4.60912 31.3359 4.67895C30.4493 4.74879 29.5627 4.88846 28.8978 4.95829C28.0112 5.09796 27.1246 5.23763 26.238 5.30747C21.5833 5.79632 17.8152 6.49467 14.2688 7.26285C11.1657 7.96121 8.06256 8.72939 5.40275 9.63725C4.07284 10.0563 2.96458 10.4753 1.85633 10.8943C1.41303 11.1038 0.969724 11.3133 0.748073 11.5926C0.748073 11.6625 0.526422 11.8021 0.526422 11.872C0.30477 12.0815 0.30477 12.291 0.0831192 12.5005C-0.138532 12.7798 0.0831192 13.0592 0.748073 13.2687C1.41303 13.4083 2.29963 13.4782 3.18624 13.4083C3.85119 13.3385 4.29449 13.2687 4.95944 13.2687C5.84605 13.1988 6.511 13.0592 7.39761 12.9195C8.50586 12.71 8.94917 12.2211 8.28421 11.872C7.84091 11.6625 7.39761 11.5926 6.73265 11.5228C8.94917 10.7546 11.3873 10.0563 13.8255 9.35791C18.0369 8.38022 22.4699 7.61203 27.1246 6.91368C28.2328 6.77401 29.3411 6.63434 30.4493 6.49467C31.7792 6.42483 33.3308 6.28516 34.6607 6.21533C35.9906 6.14549 37.0989 6.14549 38.4288 6.21533C39.3154 6.28516 39.9803 6.28516 40.8669 6.355C42.1968 6.49467 43.3051 6.63434 44.4134 6.77401C46.6299 7.12318 48.8464 7.47236 50.8412 7.89137C53.2794 8.38022 55.4959 8.9389 57.9341 9.49758C60.1506 9.98642 62.5887 10.5451 65.0269 11.034C67.4651 11.5228 69.9032 12.0116 72.3414 12.4307C77.2177 13.2687 82.3157 13.967 87.4137 14.4559C92.7333 14.9447 98.4962 15.1542 104.259 14.8749C106.919 14.7352 109.357 14.5257 111.795 14.2464C114.233 13.8972 116.45 13.548 118.445 13.0592C120.661 12.5703 122.656 11.9418 124.651 11.3133C125.759 10.9641 126.646 10.6149 127.533 10.2658C128.862 9.70708 130.192 9.21824 131.522 8.65956C133.074 8.03104 134.625 7.33269 136.62 6.70417C136.842 6.70417 136.842 6.63434 137.064 6.63434C137.285 6.63434 137.507 6.5645 137.728 6.5645H137.95C138.393 6.5645 138.615 6.63434 139.058 6.63434C139.945 6.77401 140.832 6.91368 141.718 7.12318C144.156 7.68186 146.151 8.38022 148.146 9.07857C150.806 9.91659 153.466 10.8244 156.347 11.5926C157.677 11.9418 159.007 12.2211 160.337 12.5005C161.888 12.8497 163.662 13.0592 165.435 13.2687C166.986 13.4782 168.76 13.548 170.533 13.6877C172.528 13.7575 174.744 13.8274 176.739 13.7575C178.512 13.7575 180.286 13.6179 181.837 13.548C183.832 13.4083 185.827 13.1988 187.822 12.9893C191.59 12.5703 195.136 12.0116 198.461 11.453C203.559 10.6149 208.214 9.56741 212.868 8.58972C215.085 8.10088 217.301 7.61203 219.739 7.12318C222.399 6.5645 225.059 6.07566 227.719 5.51698C227.941 5.44714 228.384 5.37731 228.605 5.37731C229.492 5.23763 230.379 5.09796 231.265 4.88846C232.595 4.67895 233.925 4.39961 235.477 4.19011C235.698 4.12027 236.142 4.12027 236.363 4.05044C237.25 3.91077 238.358 3.7711 239.245 3.63143C240.796 3.42192 242.569 3.14258 244.121 2.93308C245.673 2.72357 247.446 2.5839 249.219 2.44423C249.662 2.44423 249.884 2.44423 250.327 2.44423C250.549 2.44423 250.992 2.44423 251.214 2.44423C251.879 2.51406 252.544 2.5839 253.43 2.65373C254.539 2.86324 255.647 3.07275 256.755 3.35209C260.08 4.25994 262.961 5.23764 266.065 6.14549C268.059 6.70417 270.054 7.26285 272.049 7.82153C274.044 8.31038 276.039 8.72939 278.034 9.21824C280.25 9.70708 282.467 10.0563 284.683 10.4753C286.678 10.8244 289.116 11.034 291.333 11.1736C292.441 11.2435 293.328 11.2435 294.436 11.1736C295.766 11.1736 297.096 11.1038 298.426 10.9641C300.642 10.8244 302.859 10.6149 304.853 10.3356C307.292 9.98642 309.508 9.63725 311.725 9.21824C314.828 8.58972 317.488 7.89137 320.369 7.19302C321.921 6.77401 323.694 6.355 325.245 5.93599C326.575 5.58681 327.905 5.30747 329.235 4.95829C332.117 4.25994 334.998 3.70126 338.323 3.21242C339.874 3.00291 341.426 2.86324 343.199 2.79341C344.086 2.79341 344.751 2.72357 345.637 2.72357C346.302 2.72357 346.967 2.72357 347.854 2.79341C350.514 2.93308 352.952 3.14258 355.39 3.42192C357.385 3.70126 359.601 4.05044 361.596 4.32978C362.926 4.53928 364.034 4.74879 365.364 4.95829C366.473 5.1678 367.802 5.37731 369.132 5.58681C371.57 5.93599 374.009 6.28516 376.447 6.63434C379.107 6.98351 381.766 7.19302 384.426 7.40252C390.189 7.89137 395.952 8.17071 401.715 8.38022C404.597 8.51989 407.7 8.51989 410.581 8.51989C413.463 8.51989 416.344 8.38022 419.226 8.24055C424.323 8.03104 429.421 7.54219 434.298 6.91368C437.401 6.49467 440.282 6.00582 443.385 5.51698C446.932 4.95829 450.478 4.32978 454.246 3.7711C454.911 3.70126 455.798 3.63143 456.463 3.56159C456.906 3.56159 457.349 3.56159 457.793 3.56159C458.901 3.63143 459.788 3.70126 460.896 3.84093C464.221 4.32978 467.102 5.02813 470.205 5.65665C473.308 6.355 476.633 6.91368 479.958 7.47236C483.283 8.03104 486.829 8.45005 490.376 8.86906C494.365 9.28807 498.577 9.49758 502.788 9.56741C506.556 9.63725 510.324 9.49758 513.871 9.21824C516.974 9.00873 520.077 8.58972 522.958 8.17071C524.288 7.96121 525.396 7.82153 526.726 7.61203C527.613 7.47236 528.278 7.33269 529.164 7.19302C530.273 6.98351 531.603 6.84384 532.711 6.63434C538.695 5.86615 544.902 5.44714 551.33 5.1678C554.654 5.02813 558.201 4.95829 561.747 4.81862C564.629 4.74879 567.732 4.67895 570.613 4.60912C576.598 4.46945 582.804 4.32978 588.789 4.39961C591.227 4.39961 593 3.7711 593 3.07275C593 2.37439 591.005 1.74588 588.789 1.74588C584.134 1.74588 579.479 1.88555 575.046 1.95538C572.608 2.16489 570.392 2.23472 568.175 2.30456ZM455.798 3.63143C456.02 3.63143 456.02 3.63143 456.241 3.63143C456.02 3.63143 455.798 3.63143 455.798 3.63143Z" fill="#259D4A"/>
</svg>
