<svg width="74" height="73" viewBox="0 0 74 73" fill="none" xmlns="http://www.w3.org/2000/svg">
<circle cx="37.0323" cy="36.4366" r="36.4366" fill="#EDE6D8" fill-opacity="0.39"/>
<path fill-rule="evenodd" clip-rule="evenodd" d="M38.1508 19.135C37.7355 18.955 37.2642 18.955 36.8489 19.135L15.5635 28.3574C14.9647 28.6168 14.5771 29.2071 14.5771 29.8598C14.5771 30.5124 14.9647 31.1027 15.5635 31.3621L18.4865 32.6286V50.9375C17.0642 51.5685 16.0721 52.993 16.0721 54.6493C16.0721 56.8908 17.8893 58.7079 20.1308 58.7079C22.3723 58.7079 24.1895 56.8908 24.1895 54.6493C24.1895 52.9913 23.1955 51.5655 21.771 50.9355V34.0517L36.8489 40.5845C37.2642 40.7645 37.7355 40.7645 38.1508 40.5845L59.4362 31.3621C60.0349 31.1027 60.4226 30.5124 60.4226 29.8598C60.4226 29.2071 60.0349 28.6168 59.4362 28.3574L38.1508 19.135ZM24.2561 47.3793L24.2397 39.583L35.22 44.3405C36.6736 44.9703 38.3231 44.9703 39.7766 44.3405L50.759 39.5821L50.7607 47.3755C50.7607 47.7334 50.6434 48.0814 50.427 48.3663L49.1233 47.3759C50.427 48.3663 50.4266 48.367 50.426 48.3678L50.4247 48.3693L50.4221 48.3728L50.4158 48.381L50.3991 48.4024L50.349 48.4645C50.3084 48.5142 50.2531 48.5802 50.1823 48.6601C50.0412 48.8198 49.8392 49.0354 49.5742 49.288C49.0444 49.7926 48.2595 50.4476 47.2017 51.0966C45.0758 52.4012 41.8764 53.664 37.499 53.664C33.1214 53.664 29.9261 52.4012 27.804 51.0956C26.7482 50.4463 25.9655 49.791 25.4372 49.2858C25.173 49.033 24.9717 48.8172 24.831 48.6573C24.7606 48.5773 24.7053 48.5113 24.6648 48.4614L24.615 48.3992L24.5983 48.3777L24.592 48.3695L24.5894 48.366L24.5882 48.3644C24.5876 48.3637 24.5871 48.363 25.8933 47.376L24.5871 48.363C24.373 48.0796 24.2568 47.7344 24.2561 47.3793Z" fill="#0C434B"/>
</svg>
