<svg width="100" height="100" viewBox="0 0 100 100" fill="none" xmlns="http://www.w3.org/2000/svg">
<g filter="url(#filter0_b_440_2495)">
<circle cx="50" cy="50" r="50" fill="white" fill-opacity="0.43"/>
</g>
<path fill-rule="evenodd" clip-rule="evenodd" d="M58.8446 18.4349C57.8842 18.5977 56.8137 18.9099 55.858 19.3061C51.9382 20.9312 48.9658 24.618 48.1971 28.8083C47.9873 29.952 47.962 31.9922 48.1431 33.1546C48.6724 36.5507 50.6398 39.7067 53.465 41.6912C59.8364 46.167 68.6607 44.0272 72.2777 37.1291C73.2556 35.2642 73.7047 33.4979 73.7289 31.4219C73.7536 29.2905 73.3845 27.5744 72.4897 25.6615C70.7466 21.9352 67.2684 19.2508 63.201 18.4927C62.1842 18.3032 59.8081 18.2717 58.8446 18.4349ZM62.9504 23.3371C68.4183 24.799 70.7307 31.2472 67.4481 35.8788C65.4934 38.6369 61.9026 39.8706 58.5938 38.921C57.1035 38.4934 55.327 37.2847 54.4321 36.0896C52.6192 33.6685 52.2755 30.3299 53.5663 27.6777C54.7718 25.2005 57.098 23.5085 59.8389 23.1154C60.639 23.0007 62.0747 23.103 62.9504 23.3371ZM59.3331 26.4491C55.8518 27.6318 54.7947 31.9872 57.3493 34.6226C59.2508 36.5842 62.3718 36.6207 64.3187 34.7042C65.8611 33.1858 66.2503 30.9877 65.3312 28.9849C64.8339 27.9012 63.5907 26.8166 62.4108 26.437C61.5171 26.1495 60.1998 26.1547 59.3331 26.4491ZM45.5407 42.6342C44.9137 42.7558 44.3794 43.0425 43.8911 43.5195C43.3179 44.0795 43.0331 44.6641 42.972 45.4068C42.9282 45.9384 42.8929 46.0205 42.6258 46.2137C42.3325 46.4258 33.2282 52.4649 33.0054 52.5951C32.9423 52.6319 32.6762 52.589 32.4139 52.4999C31.7664 52.2797 30.7432 52.3371 30.1047 52.6294C29.5209 52.8967 28.8306 53.5715 28.5247 54.1739C28.3314 54.5543 28.2926 54.7707 28.2826 55.5218C28.2714 56.3636 28.2894 56.4519 28.5867 57.0161C28.9337 57.6742 29.4175 58.1517 30.0761 58.4859C30.4296 58.6653 30.6611 58.7052 31.3993 58.7138C32.1589 58.7227 32.3655 58.6902 32.7676 58.4984C33.7892 58.0111 34.5379 56.9675 34.6175 55.9201L34.661 55.3498L39.6454 52.041L44.6298 48.7322L45.2533 48.8967C46.4734 49.2185 47.5772 48.9169 48.4271 48.0294C49.2467 47.1735 49.532 46.0838 49.2252 44.9804C48.7718 43.3499 47.1562 42.321 45.5407 42.6342ZM57.2525 48.438L53.801 52.2882L55.0239 52.3288L56.2467 52.3694L56.137 61.7377L56.0274 71.1061L53.1548 71.0725L50.2823 71.0388L50.3617 64.2578L50.4411 57.4767L46.0145 57.4249L41.588 57.373L41.5086 64.1541L41.4292 70.9352L38.5567 70.9016L35.6841 70.8679L35.7354 66.4885L35.7867 62.1091L31.3601 62.0572L26.9336 62.0054L26.8824 66.3795L26.8312 70.7536L24.9164 70.7601C23.055 70.7664 22.9922 70.773 22.658 70.9964C21.6695 71.6575 21.6663 73.1492 22.6523 73.7185L23.0048 73.9221L45.8407 74.1895L68.6765 74.4568L68.9904 74.2485C69.4792 73.9241 69.6833 73.5904 69.7314 73.0365C69.7832 72.4393 69.5936 72.0228 69.0727 71.5908L68.7243 71.3018L66.7554 71.2484L64.7864 71.195L64.896 61.8335L65.0056 52.4719L66.2332 52.46L67.4608 52.4481L64.3365 48.785C62.618 46.7704 61.0978 45.0018 60.958 44.8549L60.704 44.5877L57.2525 48.438Z" fill="#044D57"/>
<path fill-rule="evenodd" clip-rule="evenodd" d="M55.6872 18.7072C56.6903 18.2914 57.8138 17.9637 58.8218 17.7929C59.833 17.6215 62.3269 17.6546 63.3941 17.8535C67.663 18.6492 71.3135 21.4666 73.143 25.3775C74.0822 27.3851 74.4696 29.1863 74.4436 31.4233C74.4182 33.6021 73.9469 35.456 72.9205 37.4133C69.1243 44.6532 59.8628 46.899 53.1756 42.2014C50.2105 40.1186 48.1456 36.8062 47.5901 33.2418C47.4 32.0219 47.4266 29.8806 47.6468 28.6802C48.4535 24.2823 51.5732 20.4128 55.6872 18.7072ZM67.8516 36.101C71.2969 31.24 68.8699 24.4722 63.1311 22.9379C62.212 22.6922 60.7051 22.5848 59.8653 22.7053C56.9887 23.1178 54.5473 24.8936 53.2819 27.4936C51.9272 30.2772 52.2879 33.7812 54.1906 36.3223C55.1299 37.5766 56.9945 38.8451 58.5586 39.294C62.0314 40.2906 65.8 38.9958 67.8516 36.101ZM57.2524 34.7826C54.5712 32.0166 55.6807 27.4454 59.3345 26.2041C60.2442 25.8951 61.6268 25.8897 62.5647 26.1914C63.8031 26.5899 65.1079 27.7282 65.6298 28.8656C66.5944 30.9676 66.186 33.2746 64.5672 34.8682C62.5238 36.8798 59.2482 36.8414 57.2524 34.7826ZM61.1393 45.6326C61.0898 45.5764 61.0561 45.5388 61.04 45.5219L60.7733 45.2415L60.3283 45.7379C60.5452 45.6467 60.7435 45.5685 60.9013 45.5098L61.1393 45.6326Z" fill="#299E4D"/>
<defs>
<filter id="filter0_b_440_2495" x="-2.4" y="-2.4" width="104.8" height="104.8" filterUnits="userSpaceOnUse" color-interpolation-filters="sRGB">
<feFlood flood-opacity="0" result="BackgroundImageFix"/>
<feGaussianBlur in="BackgroundImageFix" stdDeviation="1.2"/>
<feComposite in2="SourceAlpha" operator="in" result="effect1_backgroundBlur_440_2495"/>
<feBlend mode="normal" in="SourceGraphic" in2="effect1_backgroundBlur_440_2495" result="shape"/>
</filter>
</defs>
</svg>
