<svg width="42" height="42" viewBox="0 0 42 42" fill="none" xmlns="http://www.w3.org/2000/svg">
<circle cx="21" cy="21" r="21" fill="#259D4A" fill-opacity="0.13"/>
<g clip-path="url(#clip0_1806_8822)">
<path fill-rule="evenodd" clip-rule="evenodd" d="M12.1922 14.0752C12.1922 13.0422 13.0469 12.1875 14.0799 12.1875H27.9206C28.9536 12.1875 29.8084 13.0422 29.8084 14.0752V17.8499C29.8113 23.0441 26.5279 27.8245 21.6789 29.6864C21.2419 29.8547 20.7581 29.8545 20.3212 29.6861C15.4722 27.8243 12.1892 23.0441 12.1922 17.8499V14.0752ZM19.9448 15.34C19.8398 15.165 20.0614 14.9201 20.3063 15.0251C21.7207 15.706 22.9135 16.7735 23.7467 18.104C24.5065 19.2177 24.913 20.5345 24.913 21.8827C24.8964 24.0195 23.075 25.5493 21.0093 25.5238C18.9848 25.499 17.1371 23.9726 17.0991 21.8827C17.0059 20.9391 17.4515 20.0132 18.1837 19.4102C18.487 19.107 18.6969 19.2936 18.7552 19.4102C18.9511 19.7828 19.2472 20.0892 19.5372 20.3893C19.5487 20.4011 19.5601 20.413 19.5716 20.4248C19.5993 20.4559 19.6335 20.4804 19.6718 20.4965C19.7102 20.5126 19.7516 20.52 19.7932 20.5181C19.8337 20.5169 19.8734 20.5069 19.9097 20.4887C19.9459 20.4706 19.9778 20.4448 20.0031 20.4132C20.6687 19.5777 20.8194 18.4473 20.6679 17.4159C20.5579 16.685 20.3127 15.981 19.9448 15.34Z" fill="#06C168"/>
</g>
<defs>
<clipPath id="clip0_1806_8822">
<rect width="18" height="18" fill="white" transform="translate(12 12)"/>
</clipPath>
</defs>
</svg>
