<svg width="225" height="244" viewBox="0 0 225 244" fill="none" xmlns="http://www.w3.org/2000/svg">
<g filter="url(#filter0_bd_440_3055)">
<rect x="46" y="58" width="149" height="136" rx="21" fill="white" fillOpacity="0.63" shape-rendering="crispEdges"/>
</g>
<rect x="53.5" y="64.5" width="134" height="123" rx="20.5" stroke="url(#paint0_linear_440_3055)" stroke-opacity="0.25"/>
<circle cx="122" cy="56" r="55.5789" stroke="url(#paint1_linear_440_3055)" stroke-opacity="0.2" strokeWidth="0.842105"/>
<circle cx="122" cy="56.0001" r="44.5961" transform="rotate(-106.389 122 56.0001)" stroke="url(#paint2_linear_440_3055)" stroke-opacity="0.2" strokeWidth="0.842105"/>
<circle cx="121.999" cy="56.0004" r="37.8947" fill="white" fillOpacity="0.41" stroke="url(#paint3_linear_440_3055)" strokeWidth="0.842105"/>
<path fillRule="evenodd" clipRule="evenodd" d="M102.678 51.1895C103.596 42.3055 110.825 35.2942 119.805 34.7138C119.7 34.7978 119.604 34.8933 119.518 34.9993C115.742 39.6426 113.395 45.2665 112.739 51.1895H102.678ZM113.886 62.0567C113.886 62.1916 113.891 62.3256 113.901 62.4586V70.119C107.814 67.5713 103.384 61.8514 102.678 55.026H112.739C112.963 57.0532 113.386 59.0454 113.996 60.9751C113.924 61.3266 113.886 61.6886 113.886 62.0567ZM116.602 55.026H121.974L117.122 57.1283C117.07 57.151 117.018 57.1744 116.967 57.1985C116.816 56.481 116.694 55.7563 116.602 55.026ZM139.346 51.1895H129.273C128.617 45.2665 126.27 39.6426 122.494 34.9993C122.408 34.893 122.311 34.7972 122.206 34.713C131.192 35.2876 138.427 42.3013 139.346 51.1895ZM116.602 51.1895H125.41C124.877 46.9792 123.368 42.953 121.006 39.4321C118.644 42.953 117.135 46.9792 116.602 51.1895ZM132.296 55.3075C131.871 55.1233 131.389 55.1233 130.964 55.3075L118.768 60.5915C118.639 60.6474 118.52 60.7182 118.412 60.8014C117.772 61.1599 117.339 61.8445 117.339 62.6302V71.9252C117.339 73.082 118.277 74.0196 119.434 74.0196C120.591 74.0196 121.528 73.082 121.528 71.9252V64.8627L130.964 68.9509C131.389 69.135 131.871 69.135 132.296 68.9509L144.492 63.6667C145.105 63.4011 145.501 62.797 145.501 62.1291C145.501 61.4612 145.105 60.8571 144.492 60.5915L132.296 55.3075ZM123.294 69.1485L129.506 71.8399C130.86 72.4267 132.397 72.4267 133.752 71.8399L139.963 69.1485L139.964 73.3183C139.964 73.6845 139.845 74.0405 139.623 74.3324L138.29 73.3196C139.623 74.3324 139.622 74.3336 139.622 74.3336L139.621 74.3352L139.618 74.3385L139.612 74.3459L139.599 74.3631L139.562 74.4091C139.533 74.4447 139.495 74.4898 139.448 74.5429C139.354 74.6491 139.224 74.7879 139.056 74.9481C138.72 75.2685 138.229 75.6767 137.573 76.0791C136.251 76.8906 134.286 77.6588 131.628 77.6588C128.971 77.6588 127.008 76.8906 125.687 76.0782C125.032 75.6755 124.543 75.2667 124.208 74.9459C124.04 74.7854 123.91 74.6464 123.816 74.5402C123.77 74.4868 123.732 74.4417 123.703 74.4061L123.666 74.36L123.652 74.3425L123.647 74.3352L123.644 74.3318L123.643 74.3302C123.643 74.3302 123.642 74.3287 124.978 73.3189L123.642 74.3287C123.423 74.039 123.304 73.6857 123.303 73.322L123.294 69.1485Z" fill="#0C434B"/>
<path d="M73.8504 133V121.691H69.8941V119.293H80.4841V121.691H76.5278V133H73.8504ZM84.3816 133.28C81.1246 133.28 78.9667 131.162 78.9667 128.005C78.9667 124.848 81.1246 122.73 84.3816 122.73C87.6385 122.73 89.7965 124.848 89.7965 128.005C89.7965 131.162 87.6385 133.28 84.3816 133.28ZM84.3816 131.162C86.1999 131.162 87.3987 129.903 87.3987 128.005C87.3987 126.106 86.1999 124.848 84.3816 124.848C82.5633 124.848 81.3644 126.106 81.3644 128.005C81.3644 129.903 82.5633 131.162 84.3816 131.162ZM96.9448 122.73C100.102 122.73 102.22 124.848 102.22 128.005C102.22 131.162 100.102 133.28 96.9448 133.28C95.7259 133.28 94.3872 132.72 93.6279 131.901V136.717H91.2301V123.009H93.6279V124.108C94.3872 123.289 95.7259 122.73 96.9448 122.73ZM96.705 124.848C94.8667 124.848 93.6279 126.106 93.6279 128.005C93.6279 129.903 94.8667 131.162 96.705 131.162C98.5832 131.162 99.8221 129.903 99.8221 128.005C99.8221 126.106 98.5832 124.848 96.705 124.848ZM108.505 133V119.293H114.879C117.556 119.293 119.335 120.871 119.335 123.229C119.335 125.047 118.216 126.546 116.557 126.966L120.294 133H117.336L113.72 127.165H111.182V133H108.505ZM111.182 124.768H114.879C116.098 124.768 116.717 123.988 116.717 123.229C116.717 122.45 116.098 121.691 114.879 121.691H111.182V124.768ZM125.724 133.28C122.607 133.28 120.529 131.162 120.529 128.005C120.529 124.848 122.607 122.73 125.724 122.73C126.903 122.73 128.202 123.269 128.961 124.088V123.009H131.359V133H128.961V131.921C128.202 132.74 126.903 133.28 125.724 133.28ZM125.964 131.162C127.762 131.162 128.961 129.903 128.961 128.005C128.961 126.106 127.762 124.848 125.964 124.848C124.146 124.848 122.927 126.106 122.927 128.005C122.927 129.903 124.146 131.162 125.964 131.162ZM133.202 133V123.009H135.6V123.749C136.26 123.129 137.339 122.73 138.318 122.73C141.055 122.73 142.873 124.348 142.873 126.786V133H140.476V127.066C140.476 125.727 139.497 124.848 138.038 124.848C136.579 124.848 135.6 125.727 135.6 127.066V133H133.202ZM144.715 133V119.293H147.113V126.406L150.49 123.009H153.847L149.61 127.165L154.326 133H151.249L147.892 128.844L147.113 129.623V133H144.715ZM159.701 133.28C156.445 133.28 154.287 131.162 154.287 128.005C154.287 124.848 156.445 122.73 159.701 122.73C162.958 122.73 165.116 124.848 165.116 128.005V128.464L164.917 128.664H156.724C156.944 130.243 158.143 131.282 159.701 131.282C160.88 131.282 161.979 130.602 162.439 129.603H164.877C164.217 131.801 162.139 133.28 159.701 133.28ZM156.884 126.666H162.519C162.059 125.427 161.04 124.728 159.701 124.728C158.363 124.728 157.344 125.427 156.884 126.666ZM171.425 133.28C168.268 133.28 166.15 131.162 166.15 128.005C166.15 124.848 168.268 122.73 171.425 122.73C172.644 122.73 173.983 123.289 174.742 124.108V119.293H177.14V133H174.742V131.901C173.983 132.72 172.644 133.28 171.425 133.28ZM171.665 131.162C173.504 131.162 174.742 129.903 174.742 128.005C174.742 126.106 173.504 124.848 171.665 124.848C169.787 124.848 168.548 126.106 168.548 128.005C168.548 129.903 169.787 131.162 171.665 131.162Z" fill="#0B434B"/>
<path d="M86.2119 170V146.268H91.9547L99.6001 164.153L107.246 146.268H112.988V170H108.353V153.152L101.572 170H97.6282L90.8476 153.152V170H86.2119ZM116.719 170V146.268H127.755C132.425 146.268 135.538 148.828 135.538 152.668C135.538 154.294 134.639 156.128 133.255 157.304C135.746 158.376 137.406 160.798 137.406 163.323C137.406 167.336 134.155 170 129.311 170H116.719ZM121.354 155.747H127.755C129.657 155.747 130.903 154.675 130.903 153.083C130.903 151.492 129.657 150.419 127.755 150.419H121.354V155.747ZM121.354 165.849H129.311C131.387 165.849 132.771 164.672 132.771 162.908C132.771 161.109 131.387 159.898 129.346 159.898H121.354V165.849ZM156.878 170L154.491 163.911H144.873L142.521 170H137.539L147.329 146.268H152.104L161.825 170H156.878ZM146.499 159.76H152.865L149.682 151.596L146.499 159.76Z" fill="#295F3A"/>
<defs>
<filter id="filter0_bd_440_3055" x="0.799999" y="32.8" width="223.4" height="210.4" filterUnits="userSpaceOnUse" colorInterpolationFilters="sRGB">
<feFlood floodOpacity="0" result="BackgroundImageFix"/>
<feGaussianBlur in="BackgroundImageFix" stdDeviation="4.32635"/>
<feComposite in2="SourceAlpha" operator="in" result="effect1_backgroundBlur_440_3055"/>
<feColorMatrix in="SourceAlpha" type="matrix" values="0 0 0 0 0 0 0 0 0 0 0 0 0 0 0 0 0 0 127 0" result="hardAlpha"/>
<feOffset dx="-8" dy="12"/>
<feGaussianBlur stdDeviation="18.6"/>
<feComposite in2="hardAlpha" operator="out"/>
<feColorMatrix type="matrix" values="0 0 0 0 0 0 0 0 0 0 0 0 0 0 0 0 0 0 0.11 0"/>
<feBlend mode="normal" in2="effect1_backgroundBlur_440_3055" result="effect2_dropShadow_440_3055"/>
<feBlend mode="normal" in="SourceGraphic" in2="effect2_dropShadow_440_3055" result="shape"/>
</filter>
<linearGradient id="paint0_linear_440_3055" x1="76" y1="161.5" x2="120" y2="88" gradientUnits="userSpaceOnUse">
<stop stopColor="#259D4A"/>
<stop offset="1" stopColor="#259D4A"  stopopacityy="0"/>
</linearGradient>
<linearGradient id="paint1_linear_440_3055" x1="166.308" y1="20.9231" x2="101.077" y2="-10.4615" gradientUnits="userSpaceOnUse">
<stop stopColor="#259D4A"/>
<stop offset="1" stopColor="#259D4A"  stopopacityy="0"/>
</linearGradient>
<linearGradient id="paint2_linear_440_3055" x1="157.618" y1="27.8025" x2="105.181" y2="2.57313" gradientUnits="userSpaceOnUse">
<stop stopColor="#259D4A"/>
<stop offset="1" stopColor="#259D4A"  stopopacityy="0"/>
</linearGradient>
<linearGradient id="paint3_linear_440_3055" x1="152.315" y1="32.0004" x2="107.684" y2="10.5267" gradientUnits="userSpaceOnUse">
<stop stopColor="#259D4A"/>
<stop offset="1" stopColor="#259D4A"  stopopacityy="0"/>
</linearGradient>
</defs>
</svg>
