<svg width="375" height="20" viewBox="0 0 375 20" fill="none" xmlns="http://www.w3.org/2000/svg">
<rect x="365.949" y="0.0545654" width="142.135" height="141.914" fill="#0B434B"/>
<path d="M508.845 0.0544665C490.024 0.0544657 471.386 3.72599 453.998 10.8594C436.609 17.9928 420.809 28.4485 407.5 41.6293C394.191 54.8102 383.634 70.4581 376.431 87.6798C369.229 104.901 365.521 123.359 365.521 142L508.845 142L508.845 0.0544665Z" fill="#EDE6D8"/>
<g clip-path="url(#clip0_2017_1017)">
<rect width="71.3785" height="70.8216" transform="matrix(1.17093e-10 -1 -0.999998 -0.00219698 300.926 71.5341)" fill="#4EC773"/>
<path d="M230.174 71.4562L230.018 0.634847L300.995 71.4562H230.174Z" fill="#4EC773"/>
<rect width="69.1479" height="71.8704" transform="matrix(0.00219698 0.999998 1 0 300.926 0)" fill="white"/>
<path d="M336.937 34.7734C356.783 34.7734 372.838 19.2549 372.796 0.111993L300.926 0.111993C300.968 19.2549 317.09 34.7734 336.937 34.7734Z" fill="#EDE6D8"/>
</g>
<rect x="88.5225" y="0.0545044" width="143.324" height="141.945" fill="#0B434B"/>
<path d="M231.846 0.0544647C213.025 0.0544639 194.387 3.72598 176.998 10.8594C159.61 17.9928 143.81 28.4485 130.501 41.6293C117.192 54.8102 106.635 70.4581 99.4323 87.6797C92.2296 104.901 88.5225 123.359 88.5225 142L231.846 142L231.846 0.0544647Z" fill="#EE9B4E"/>
<rect x="113.52" y="141.97" width="142.135" height="141.942" transform="rotate(-180 113.52 141.97)" fill="#0B434B"/>
<path d="M-28.6155 141.967C-9.95006 141.967 8.53261 138.296 25.7772 131.162C43.0218 124.029 58.6907 113.574 71.8891 100.393C85.0876 87.2126 95.5572 71.565 102.7 54.3437C109.843 37.1225 113.52 18.6649 113.52 0.0247192L-28.6155 0.0247239L-28.6155 141.967Z" fill="white"/>
<path d="M-28.6154 70.9956C-19.2826 70.9956 -10.0413 69.1599 -1.41901 65.5933C7.2033 62.0266 15.0377 56.7989 21.637 50.2086C28.2362 43.6184 33.471 35.7945 37.0425 27.1839C40.6139 18.5733 42.4521 9.34449 42.4521 0.0244141L-28.6154 0.0244164L-28.6154 70.9956Z" fill="#4EC773"/>
<defs>
<clipPath id="clip0_2017_1017">
<rect width="142.85" height="69.4307" fill="white" transform="matrix(1 0 0.00219698 0.999998 229.947 0)"/>
</clipPath>
</defs>
</svg>
