<svg width="1440" height="27" viewBox="0 0 1440 27" fill="none" xmlns="http://www.w3.org/2000/svg">
<rect width="148.484" height="148.484" transform="matrix(-0.00219698 0.999998 1 0 1412.45 0.00268555)" fill="#259D4A"/>
<path d="M1412.45 0.00322007C1412.41 19.5024 1416.21 38.8107 1423.63 56.8256C1431.05 74.8405 1441.95 91.2092 1455.71 104.997C1469.47 118.785 1485.81 129.722 1503.81 137.185C1521.81 144.647 1541.11 148.487 1560.61 148.487L1560.93 0.00322007H1412.45Z" fill="#EE9B4E"/>
<rect width="298" height="298" transform="matrix(1 0 0 -1 1114.74 298)" fill="#0B434B"/>
<path d="M1412.74 298C1373.61 298 1334.86 290.292 1298.7 275.316C1262.55 260.34 1229.7 238.39 1202.02 210.718C1174.35 183.046 1152.4 150.195 1137.43 114.04C1122.45 77.8846 1114.74 39.1339 1114.74 0L1412.74 2.27356e-05V298Z" fill="#EDE6D8"/>
<path d="M1412.74 149C1393.17 149 1373.8 145.146 1355.72 137.658C1337.64 130.17 1321.22 119.195 1307.38 105.359C1293.54 91.523 1282.57 75.0973 1275.08 57.0198C1267.59 38.9423 1263.74 19.567 1263.74 0L1412.74 1.13678e-05V149Z" fill="#259D4A"/>
<rect width="148.484" height="148.484" transform="matrix(-0.00219698 0.999998 1 0 817.84 0)" fill="#259D4A"/>
<path d="M817.844 0.00126695C817.801 19.5005 821.599 38.8087 829.022 56.8236C836.444 74.8385 847.345 91.2073 861.103 104.995C874.861 118.783 891.206 129.721 909.204 137.183C927.203 144.645 946.503 148.485 966.002 148.485L966.328 0.00126695H817.844Z" fill="#EE9B4E"/>
<rect width="148.484" height="148.484" transform="matrix(-0.00219698 0.999998 1 0 966.328 0.0012207)" fill="#EDE6D8"/>
<rect width="74.2422" height="148.484" transform="matrix(-0.00219698 0.999998 1 0 966.328 0.0012207)" fill="#259D4A"/>
<rect width="74.2422" height="148.484" transform="matrix(-0.00219698 0.999998 1 0 966.328 0.0012207)" fill="#259D4A"/>
<rect width="148.484" height="148.484" transform="matrix(0.00219698 -0.999998 1 0 133.515 148.485)" fill="#259D4A"/>
<path d="M281.999 148.485L282.325 0.00126313L133.515 148.485L281.999 148.485Z" fill="#259D4A"/>
<rect width="148.484" height="148.484" transform="matrix(-0.00219698 0.999998 -1 0 133.842 0.0012207)" fill="white"/>
<path d="M59.4355 74.2437C18.4327 74.2437 -14.7336 41.0044 -14.6435 0.00166916L133.841 0.00166916C133.751 41.0044 100.438 74.2437 59.4355 74.2437Z" fill="#EDE6D8"/>
<rect width="298" height="298" transform="matrix(1 0 0 -1 519.761 298)" fill="#0B434B"/>
<path d="M817.762 298C778.628 298 739.877 290.292 703.722 275.316C667.567 260.34 634.716 238.39 607.044 210.718C579.372 183.046 557.422 150.195 542.446 114.04C527.47 77.8846 519.762 39.1339 519.762 0L817.762 2.27356e-05V298Z" fill="#EE9B4E"/>
<path d="M817.761 149C798.194 149 778.818 145.146 760.741 137.658C742.663 130.17 726.238 119.195 712.402 105.359C698.566 91.523 687.591 75.0973 680.103 57.0198C672.615 38.9423 668.761 19.567 668.761 0L817.761 1.13678e-05V149Z" fill="#259D4A"/>
<rect width="298" height="298" transform="matrix(-1 0 0 1 579.73 0)" fill="#0B434B"/>
<path d="M281.733 2.30408e-05C320.867 2.30408e-05 359.618 7.70801 395.773 22.6839C431.928 37.6598 464.779 59.6103 492.451 87.2822C520.123 114.954 542.074 147.805 557.05 183.96C572.025 220.115 579.733 258.866 579.733 298L281.733 298L281.733 2.30408e-05Z" fill="white"/>
</svg>
