<svg width="423" height="17" viewBox="0 0 423 17" fill="none" xmlns="http://www.w3.org/2000/svg">
<path d="M405.259 2.48661C403.678 2.56196 402.255 2.56196 400.674 2.63731C398.619 2.71266 396.564 2.86337 394.351 2.93872C390.872 3.08942 387.394 3.39083 384.074 3.76759C380.438 4.2197 376.96 4.82251 373.64 5.65138C373.008 5.80208 372.375 6.02814 371.585 6.10349C370.794 6.25419 370.162 6.4049 369.371 6.5556C368.265 6.78166 367.316 6.93236 366.209 7.08306C364.945 7.23377 363.68 7.38447 362.415 7.45982C361.308 7.53517 360.202 7.53517 359.095 7.53517C357.988 7.53517 357.04 7.45982 355.933 7.45982C354.51 7.38447 353.087 7.23377 351.665 7.00771C350.242 6.78166 348.819 6.5556 347.396 6.25419C345.025 5.72673 342.653 5.12392 340.282 4.5211C339.175 4.2197 338.226 3.91829 337.12 3.54153C335.855 3.16477 334.59 2.78801 333.326 2.41126C332.377 2.10985 331.27 1.88379 330.164 1.65774C329.531 1.50703 328.741 1.43168 327.95 1.35633C327.16 1.28098 326.527 1.28098 325.737 1.20563C325.263 1.20563 324.788 1.20563 324.472 1.28098C323.84 1.35633 323.207 1.43168 322.575 1.50703C321.626 1.65774 320.678 1.88379 319.729 2.10985C317.832 2.56196 316.093 3.01407 314.196 3.46618C311.824 4.06899 309.611 4.59645 307.082 5.12392C305.659 5.42532 304.078 5.65138 302.655 5.87743C300.6 6.17884 298.702 6.32954 296.647 6.48025C294.75 6.63095 292.695 6.63095 290.798 6.7063C288.584 6.7063 286.371 6.63095 284.158 6.48025C281.312 6.25419 278.624 6.02814 275.779 5.72673C273.249 5.42532 270.719 5.04857 268.348 4.59646C265.977 4.06899 263.605 3.54153 261.234 2.93872C258.546 2.26055 255.858 1.58239 253.013 1.13028C251.906 0.904221 250.799 0.828869 249.535 0.678165C248.27 0.527462 246.847 0.527462 245.424 0.527462C244.001 0.527462 242.737 0.678166 241.314 0.828869C239.891 0.979572 238.626 1.28098 237.361 1.58239C234.357 2.3359 231.67 3.31548 228.982 4.29505C227.401 4.89786 225.82 5.50068 224.239 6.10349C222.975 6.5556 221.552 7.08306 220.129 7.53517C218.706 7.98728 217.125 8.36404 215.544 8.7408C214.754 8.8915 214.121 9.04221 213.331 9.11756C212.382 9.26826 211.275 9.34361 210.327 9.41897C209.853 9.41897 209.536 9.41897 209.062 9.41897C208.746 9.41897 208.43 9.41897 208.114 9.41897C207.323 9.34361 206.533 9.19291 205.742 9.04221C202.896 8.36404 200.209 7.53517 197.679 6.63095C196.414 6.17884 195.308 5.72673 194.201 5.19927C193.411 4.82251 192.62 4.5211 191.83 4.14434C189.774 3.24012 187.877 2.1852 185.664 1.35633C184.715 1.05492 183.767 0.753517 182.66 0.45211C182.028 0.301407 181.395 0.226055 180.763 0.150703C180.605 0.150703 180.289 0.0753517 180.131 0.0753517C179.656 0.0753517 179.182 0 178.866 0C178.708 0 178.391 0 178.233 0H178.075C177.759 0 177.285 0 176.969 0.0753517C176.178 0.150703 175.546 0.226055 174.755 0.301407C173.332 0.527462 171.91 0.753517 170.487 1.05492C169.38 1.28098 168.273 1.50703 167.167 1.80844C166.376 1.95914 165.586 2.1852 164.795 2.3359C163.53 2.63731 162.424 2.93872 161.159 3.24012C160.527 3.39083 159.894 3.54153 159.42 3.69223C158.313 3.99364 157.207 4.3704 156.258 4.67181C155.468 4.89786 154.677 5.12392 153.887 5.42532C151.831 6.02814 149.934 6.7063 147.879 7.30912C143.61 8.66545 139.184 10.0218 134.441 11.0014C133.334 11.2274 132.386 11.3781 131.279 11.6042C130.014 11.8302 128.591 11.9809 127.168 12.0563C126.536 12.0563 126.062 12.1316 125.429 12.1316C124.481 12.1316 123.69 12.1316 122.742 12.0563C121.477 11.9809 120.212 11.8302 119.106 11.6042C117.841 11.3028 116.576 10.926 115.469 10.5492C113.572 9.87108 111.991 9.04221 110.41 8.21334C109.62 7.83658 108.829 7.38447 108.039 7.00771C107.09 6.5556 105.984 6.10349 105.035 5.65138C104.086 5.27462 103.296 4.97321 102.189 4.74716C101.241 4.89786 100.608 4.74716 99.9759 4.67181C99.3435 4.59646 98.7111 4.5211 98.0788 4.5211C97.6045 4.5211 97.2883 4.5211 96.814 4.59646C96.1816 4.67181 95.7073 4.74716 95.0749 4.89786C94.6006 5.04857 93.9683 5.19927 93.494 5.34997C93.0197 5.57603 92.5454 5.80208 92.2292 6.02814C91.4387 6.48025 90.6482 6.93236 90.0159 7.38447C89.3835 7.76123 88.7511 8.06263 88.2768 8.43939C87.6444 8.81615 86.8539 9.26826 86.2216 9.64502C84.7987 10.4739 83.2177 11.1521 81.4787 11.8302C80.2139 12.2823 78.7911 12.6591 77.3682 13.0358C75.9453 13.2619 74.6806 13.4126 73.2577 13.5633C71.2024 13.6387 69.3053 13.6387 67.2501 13.5633C64.0881 13.3373 61.0843 12.8851 58.0805 12.2823C55.3929 11.6795 52.8633 11.0767 50.3338 10.3232C49.069 9.94643 47.8043 9.56967 46.5395 9.11756C45.2747 8.7408 44.01 8.28869 42.7452 7.91193C41.4804 7.45982 40.2156 7.08306 38.9509 6.7063C37.6861 6.32954 36.2633 5.95279 34.8404 5.65138C32.1528 5.04857 29.307 4.67181 26.4613 4.74716C25.8289 4.74716 25.0384 4.82251 24.4061 4.82251C23.6156 4.89786 22.9832 4.97321 22.3508 5.04857C21.7184 5.12392 21.086 5.27462 20.6118 5.34997C19.9794 5.50068 19.347 5.65138 18.7146 5.72673C15.3946 6.25419 12.707 7.00771 10.1774 7.83658C7.96408 8.5901 5.75074 9.41897 3.85359 10.3985C2.90501 10.8506 2.11453 11.3028 1.32405 11.7549C1.00786 11.9809 0.69167 12.207 0.533574 12.5084C0.533574 12.5837 0.375478 12.7344 0.375478 12.8098C0.217382 13.0358 0.217382 13.2619 0.059286 13.488C-0.09881 13.7894 0.059286 14.0908 0.533574 14.3168C1.00786 14.4675 1.64025 14.5429 2.27263 14.4675C2.74692 14.3922 3.06311 14.3168 3.5374 14.3168C4.16978 14.2415 4.64407 14.0908 5.27645 13.9401C6.06693 13.714 6.38312 13.1866 5.90883 12.8098C5.59264 12.5837 5.27645 12.5084 4.80216 12.433C6.38312 11.6042 8.12218 10.8506 9.86123 10.0971C12.8651 9.04221 16.027 8.21334 19.347 7.45982C20.1375 7.30912 20.9279 7.15841 21.7184 7.00771C22.667 6.93236 23.7737 6.78166 24.7222 6.7063C25.6708 6.63095 26.4613 6.63095 27.4099 6.7063C28.0423 6.78166 28.5166 6.78165 29.1489 6.85701C30.0975 7.00771 30.888 7.15841 31.6785 7.30912C33.2594 7.68588 34.8404 8.06263 36.2633 8.51474C38.0023 9.04221 39.5833 9.64502 41.3223 10.2478C42.9033 10.7753 44.6423 11.3781 46.3814 11.9056C48.1204 12.433 49.8595 12.9605 51.5986 13.4126C55.0767 14.3168 58.7129 15.0703 62.3491 15.5978C66.1434 16.1253 70.2539 16.3513 74.3644 16.0499C76.2615 15.8992 78.0006 15.6732 79.7396 15.3718C81.4787 14.995 83.0596 14.6182 84.4825 14.0908C86.0635 13.5633 87.4863 12.8851 88.9092 12.207C89.6997 11.8302 90.3321 11.4535 90.9644 11.0767C91.913 10.4739 92.8616 9.94643 93.8102 9.34361C94.9168 8.66545 96.0235 7.91193 97.4464 7.23377C97.6045 7.23377 97.6045 7.15841 97.7626 7.15841C97.9207 7.15841 98.0788 7.08306 98.2368 7.08306H98.395C98.7111 7.08306 98.8692 7.15841 99.1854 7.15841C99.8178 7.30912 100.45 7.45982 101.083 7.68588C102.822 8.28869 104.245 9.04221 105.667 9.79572C107.565 10.6999 109.462 11.6795 111.517 12.5084C112.465 12.8851 113.414 13.1866 114.363 13.488C115.469 13.8647 116.734 14.0908 117.999 14.3168C119.106 14.5429 120.37 14.6182 121.635 14.7689C123.058 14.8443 124.639 14.9196 126.062 14.8443C127.326 14.8443 128.591 14.6936 129.698 14.6182C131.121 14.4675 132.544 14.2415 133.967 14.0154C136.654 13.5633 139.184 12.9605 141.555 12.3577C145.191 11.4535 148.511 10.3232 151.831 9.26826C153.412 8.7408 154.993 8.21334 156.732 7.68588C158.629 7.08306 160.527 6.5556 162.424 5.95279C162.582 5.87743 162.898 5.80208 163.056 5.80208C163.689 5.65138 164.321 5.50068 164.953 5.27462C165.902 5.04857 166.85 4.74716 167.957 4.5211C168.115 4.44575 168.431 4.44575 168.59 4.3704C169.222 4.2197 170.012 4.06899 170.645 3.91829C171.751 3.69223 173.016 3.39083 174.123 3.16477C175.23 2.93872 176.494 2.78801 177.759 2.63731C178.075 2.63731 178.233 2.63731 178.55 2.63731C178.708 2.63731 179.024 2.63731 179.182 2.63731C179.656 2.71266 180.131 2.78801 180.763 2.86337C181.553 3.08942 182.344 3.31548 183.134 3.61688C185.506 4.59645 187.561 5.65138 189.774 6.63095C191.197 7.23377 192.62 7.83658 194.043 8.43939C195.466 8.96686 196.889 9.41897 198.312 9.94643C199.893 10.4739 201.473 10.8506 203.054 11.3028C204.477 11.6795 206.216 11.9056 207.797 12.0563C208.588 12.1316 209.22 12.1316 210.011 12.0563C210.959 12.0563 211.908 11.9809 212.856 11.8302C214.437 11.6795 216.018 11.4535 217.441 11.1521C219.18 10.7753 220.761 10.3985 222.342 9.94643C224.556 9.26826 226.453 8.51474 228.508 7.76123C229.615 7.30912 230.879 6.85701 231.986 6.4049C232.935 6.02814 233.883 5.72673 234.832 5.34997C236.887 4.59646 238.942 3.99364 241.314 3.46618C242.42 3.24012 243.527 3.08942 244.792 3.01407C245.424 3.01407 245.898 2.93872 246.531 2.93872C247.005 2.93872 247.479 2.93872 248.112 3.01407C250.009 3.16477 251.748 3.39083 253.487 3.69223C254.91 3.99364 256.491 4.3704 257.914 4.67181C258.862 4.89786 259.653 5.12392 260.601 5.34997C261.392 5.57603 262.34 5.80208 263.289 6.02814C265.028 6.4049 266.767 6.78166 268.506 7.15841C270.403 7.53517 272.3 7.76123 274.198 7.98728C278.308 8.51474 282.419 8.81615 286.529 9.04221C288.584 9.19291 290.798 9.19291 292.853 9.19291C294.908 9.19291 296.963 9.04221 299.019 8.8915C302.655 8.66545 306.291 8.13799 309.769 7.45982C311.983 7.00771 314.038 6.48025 316.251 5.95279C318.781 5.34997 321.31 4.67181 323.998 4.06899C324.472 3.99364 325.105 3.91829 325.579 3.84294C325.895 3.84294 326.211 3.84294 326.527 3.84294C327.318 3.91829 327.95 3.99364 328.741 4.14434C331.112 4.67181 333.167 5.42532 335.381 6.10349C337.594 6.85701 339.966 7.45982 342.337 8.06263C344.708 8.66545 347.238 9.11756 349.767 9.56967C352.613 10.0218 355.617 10.2478 358.621 10.3232C361.308 10.3985 363.996 10.2478 366.526 9.94643C368.739 9.72037 370.952 9.26826 373.008 8.81615C373.956 8.5901 374.747 8.43939 375.695 8.21334C376.328 8.06263 376.802 7.91193 377.434 7.76123C378.225 7.53517 379.173 7.38447 379.964 7.15841C384.232 6.32954 388.659 5.87743 393.244 5.57603C395.615 5.42532 398.145 5.34997 400.674 5.19927C402.73 5.12392 404.943 5.04857 406.998 4.97321C411.267 4.82251 415.693 4.67181 419.962 4.74716C421.701 4.74716 422.966 4.06899 422.966 3.31548C422.966 2.56196 421.543 1.88379 419.962 1.88379C416.642 1.88379 413.322 2.0345 410.16 2.10985C408.421 2.3359 406.84 2.41126 405.259 2.48661ZM325.105 3.91829C325.263 3.91829 325.263 3.91829 325.421 3.91829C325.263 3.91829 325.105 3.91829 325.105 3.91829Z" fill="#EE9B4E"/>
</svg>
