<svg width="172" height="16" viewBox="0 0 172 16" fill="none" xmlns="http://www.w3.org/2000/svg">
<path fill-rule="evenodd" clip-rule="evenodd" d="M172 2.86749V0C171.496 0.0912781 170.99 0.18866 170.486 0.295502L170.469 0.298798C169.369 0.523743 168.268 0.749084 167.166 1.04901C166.377 1.19971 165.586 1.42578 164.795 1.57648C164.227 1.71216 163.689 1.84784 163.154 1.98352C162.502 2.14923 161.854 2.31497 161.158 2.48068C160.527 2.63141 159.895 2.7821 159.42 2.9328C158.312 3.23422 157.207 3.61096 156.258 3.91238C155.467 4.13843 154.678 4.3645 153.887 4.66589C152.859 4.96732 151.871 5.28757 150.883 5.60779C149.895 5.92801 148.906 6.24826 147.879 6.54968C143.611 7.90601 139.184 9.26236 134.441 10.2419C133.334 10.468 132.385 10.6187 131.279 10.8447C130.014 11.0708 128.592 11.2215 127.168 11.2968C126.852 11.2968 126.574 11.3157 126.299 11.3345C126.023 11.3534 125.746 11.3722 125.43 11.3722C124.48 11.3722 123.689 11.3722 122.742 11.2968C121.477 11.2215 120.213 11.0708 119.105 10.8447C118.625 10.7305 118.146 10.6055 117.676 10.4738C116.904 10.2579 116.156 10.0238 115.469 9.78983C113.572 9.11163 111.99 8.28278 110.41 7.45392C109.619 7.07715 108.83 6.62503 108.039 6.24829C107.564 6.02225 107.051 5.79617 106.537 5.5701C106.023 5.34406 105.51 5.11801 105.035 4.89194C104.086 4.5152 103.297 4.21378 102.189 3.98773C101.24 4.13843 100.607 3.98773 99.9766 3.91238C99.3438 3.83704 98.7109 3.76169 98.0781 3.76169C97.8379 3.76169 97.6387 3.76169 97.4395 3.77151C97.2441 3.78107 97.0488 3.7999 96.8145 3.83704C96.1816 3.91238 95.707 3.98773 95.0742 4.13843C94.6016 4.28912 93.9688 4.43985 93.4941 4.59055C93.0195 4.81659 92.5449 5.04266 92.2285 5.26871C91.4395 5.72083 90.6484 6.17294 90.0156 6.62503C89.707 6.80853 89.4004 6.97415 89.1113 7.13931C88.8066 7.31326 88.5215 7.48669 88.2773 7.67996L87.6445 8.05182C87.1641 8.33273 86.6543 8.62692 86.2207 8.88559C84.7988 9.71445 83.2168 10.3926 81.4785 11.0708C80.2148 11.5229 78.791 11.8997 77.3691 12.2764C75.9453 12.5025 74.6797 12.6532 73.2578 12.8039C71.2031 12.8792 69.3047 12.8792 67.25 12.8039C64.0879 12.5778 61.084 12.1257 58.0801 11.5229C55.3926 10.9201 52.8633 10.3173 50.334 9.56375C49.0684 9.18701 47.8047 8.81024 46.5391 8.35812C46.0781 8.22043 45.6152 8.07266 45.1543 7.92218C44.3516 7.66095 43.5488 7.39157 42.7461 7.1525C41.4805 6.70038 40.2148 6.32364 38.9512 5.94687C37.6855 5.57013 36.2637 5.19336 34.8398 4.89194C32.1523 4.28912 29.3066 3.91238 26.4609 3.98773C25.8281 3.98773 25.0391 4.06308 24.4062 4.06308C24.0664 4.09543 23.7559 4.12778 23.4629 4.16013C23.0723 4.20312 22.7109 4.24612 22.3516 4.28912C22.0527 4.32465 21.7539 4.37686 21.4727 4.43005C21.1582 4.48975 20.8633 4.55069 20.6113 4.59055C19.9785 4.74124 19.3477 4.89194 18.7148 4.96732C15.3945 5.49475 12.707 6.24829 10.1777 7.07715C7.96484 7.83066 5.75 8.65955 3.85352 9.6391C3.5332 9.79199 3.23047 9.94489 2.93945 10.0978C2.36914 10.397 1.84766 10.6962 1.32422 10.9955C1.22266 11.0676 1.12109 11.1397 1.02539 11.2143C0.822266 11.3734 0.640625 11.5437 0.533203 11.749C0.533203 11.8243 0.375 11.975 0.375 12.0504C0.296875 12.1634 0.257812 12.2764 0.21875 12.3894C0.177734 12.5024 0.138672 12.6155 0.0585938 12.7285C0.0234375 12.7955 0.00390625 12.8625 0 12.9286C0 12.9452 0 12.9617 0 12.9781C0.0117188 13.1916 0.191406 13.3941 0.533203 13.5574C1.00781 13.7081 1.64062 13.7834 2.27344 13.7081C2.74609 13.6328 3.0625 13.5574 3.53711 13.5574C4.00586 13.5015 4.38867 13.4042 4.8125 13.2962L5.27734 13.1806C6.06641 12.9546 6.38281 12.4271 5.9082 12.0504C5.86133 12.017 5.81445 11.9869 5.76758 11.9596C5.49414 11.802 5.20703 11.7378 4.80273 11.6736C6.37305 10.8495 8.10352 10.1 9.83203 9.35089L9.86133 9.33771C12.8652 8.28278 16.0273 7.45392 19.3477 6.70038L21.7188 6.24829C22.1934 6.2106 22.707 6.15408 23.2207 6.09756C23.7344 6.04105 24.248 5.98453 24.7227 5.94687C25.6699 5.87152 26.4609 5.87152 27.4102 5.94687C27.7363 5.98575 28.0195 6.00455 28.3066 6.02402C28.5742 6.04227 28.8418 6.0611 29.1484 6.09756C30.0977 6.24829 30.8887 6.39899 31.6777 6.54968C33.2598 6.92645 34.8398 7.30319 36.2637 7.75531C38.002 8.28278 39.584 8.88559 41.3223 9.4884L42.3984 9.85037C43.6758 10.2806 45.0293 10.7361 46.3809 11.1461L46.4219 11.1585C48.1484 11.6819 49.873 12.2046 51.5977 12.6532C55.0762 13.5574 58.7129 14.3109 62.3496 14.8384C63.5469 15.0048 64.7754 15.1413 66.0254 15.2406H74.957C76.627 15.0915 78.1816 14.8821 79.7402 14.6123C81.4785 14.2356 83.0605 13.8588 84.4824 13.3313C86.0625 12.8039 87.4863 12.1257 88.9102 11.4475C89.6992 11.0708 90.332 10.694 90.9648 10.3173C91.9121 9.71445 92.8613 9.18701 93.8105 8.5842L94.5195 8.1423C95.4023 7.58862 96.3262 7.00815 97.4473 6.47433C97.6035 6.47433 97.6035 6.39899 97.7617 6.39899C97.9199 6.39899 98.0781 6.32364 98.2363 6.32364H98.3945C98.5488 6.32364 98.6641 6.34146 98.7793 6.3598C98.9023 6.37912 99.0234 6.39899 99.1855 6.39899L99.8223 6.55362C100.242 6.65936 100.662 6.77628 101.082 6.92645C102.822 7.52927 104.244 8.28278 105.668 9.03629C106.139 9.26038 106.609 9.48907 107.082 9.71896C108.516 10.4167 109.971 11.1255 111.518 11.749C112.465 12.1257 113.414 12.4271 114.363 12.7285C115.469 13.1053 116.734 13.3313 117.998 13.5574C118.76 13.7129 119.598 13.7971 120.457 13.8836C120.846 13.9228 121.24 13.9625 121.635 14.0095C123.059 14.0849 124.639 14.1602 126.062 14.0849C126.959 14.0849 127.855 14.0091 128.695 13.9382C129.039 13.9091 129.375 13.8807 129.697 13.8588C131.121 13.7081 132.543 13.4821 133.967 13.256C136.654 12.8039 139.184 12.2011 141.555 11.5983C144.512 10.863 147.26 9.97824 149.967 9.10608L151.832 8.50882C152.74 8.20584 153.648 7.90283 154.586 7.59982C155.281 7.37537 155.992 7.15091 156.732 6.92645C158.629 6.32364 160.527 5.79617 162.424 5.19336C162.582 5.11801 162.898 5.04266 163.057 5.04266C163.689 4.89194 164.32 4.74124 164.953 4.5152C165.494 4.38614 166.035 4.23251 166.607 4.0824C167.037 3.96954 167.482 3.85867 167.957 3.76169C168.037 3.724 168.156 3.70514 168.275 3.68628C168.393 3.66745 168.512 3.64862 168.59 3.61096C169.223 3.46027 170.012 3.30957 170.645 3.15887C170.936 3.09946 171.238 3.03482 171.545 2.96774C171.695 2.93481 171.848 2.90128 172 2.86749Z" fill="#EE9B4E"/>
</svg>
