<svg width="251" height="13" viewBox="0 0 251 13" fill="none" xmlns="http://www.w3.org/2000/svg">
<path fill-rule="evenodd" clip-rule="evenodd" d="M0 3.62681C0.127684 3.59851 0.255766 3.57002 0.383848 3.54153C0.976704 3.40966 1.56956 3.2778 2.12289 3.16477C3.22957 2.93872 4.49433 2.78801 5.75909 2.63731H6.54958H7.18196C7.65625 2.71266 8.13054 2.78801 8.76292 2.86337L8.76298 2.86338C9.55344 3.08943 10.3439 3.31548 11.1344 3.61688C12.5558 4.20404 13.8637 4.81828 15.1601 5.42713C16.0265 5.83404 16.8877 6.23854 17.7744 6.63095L22.043 8.43939C22.7544 8.70312 23.4658 8.94802 24.1773 9.19291C24.8887 9.4378 25.6001 9.6827 26.3116 9.94643C27.3655 10.2981 28.4195 10.5827 29.4735 10.8674C30.0005 11.0097 30.5275 11.1521 31.0544 11.3028C32.4773 11.6795 34.2164 11.9056 35.7973 12.0563C36.5878 12.1316 37.2202 12.1316 38.0107 12.0563C38.9593 12.0563 39.9078 11.9809 40.8564 11.8302C42.4374 11.6795 44.0183 11.4535 45.4412 11.1521C47.1802 10.7753 48.7612 10.3985 50.3422 9.94643C52.038 9.42684 53.5481 8.86302 55.086 8.28886C55.5554 8.11362 56.0273 7.93742 56.5079 7.76123C57.0612 7.53517 57.6541 7.30912 58.2469 7.08306C58.8398 6.85701 59.4327 6.63095 59.986 6.4049C60.4603 6.21652 60.9346 6.04698 61.4089 5.87743C61.8832 5.70789 62.3575 5.53835 62.8317 5.34997C64.887 4.59646 66.9422 3.99364 69.3137 3.46618C70.4203 3.24012 71.527 3.08942 72.7918 3.01407C73.108 3.01407 73.3846 2.99523 73.6613 2.97639C73.938 2.95756 74.2146 2.93872 74.5308 2.93872C75.0051 2.93872 75.4794 2.93872 76.1118 3.01407C78.0089 3.16477 79.748 3.39083 81.4871 3.69223C82.1985 3.84294 82.9494 4.01248 83.7004 4.18202C84.4514 4.35156 85.2023 4.5211 85.9138 4.67181C86.388 4.78483 86.8228 4.89786 87.2576 5.01089C87.6923 5.12392 88.1271 5.23695 88.6014 5.34997C89.3919 5.57603 90.3404 5.80208 91.289 6.02814L96.5062 7.15841C98.4033 7.53517 100.3 7.76123 102.198 7.98728C106.308 8.51474 110.419 8.81615 114.529 9.04221C116.584 9.19291 118.798 9.19291 120.853 9.19291C122.908 9.19291 124.963 9.04221 127.019 8.8915C130.655 8.66545 134.291 8.13799 137.769 7.45982C139.424 7.12177 140.991 6.74159 142.601 6.35079C143.144 6.21893 143.693 6.08586 144.251 5.95279C145.253 5.71402 146.255 5.46344 147.267 5.2104C148.809 4.82458 150.375 4.43304 151.998 4.06899C152.235 4.03132 152.512 3.99364 152.788 3.95597C153.065 3.91829 153.342 3.88061 153.579 3.84294H154.527C155.318 3.91829 155.95 3.99364 156.741 4.14434C158.453 4.52515 160 5.02378 161.561 5.52682C162.162 5.72055 162.765 5.91493 163.381 6.10349C165.594 6.85701 167.966 7.45982 170.337 8.06263C172.708 8.66545 175.238 9.11756 177.767 9.56967C180.613 10.0218 183.617 10.2478 186.621 10.3232C189.308 10.3985 191.996 10.2478 194.526 9.94643C196.739 9.72037 198.952 9.26826 201.008 8.81615C201.482 8.70312 201.917 8.60893 202.351 8.51474C202.786 8.42056 203.221 8.32637 203.695 8.21334C204.011 8.13799 204.288 8.06263 204.565 7.98728C204.841 7.91193 205.118 7.83658 205.434 7.76123C205.829 7.6482 206.264 7.55401 206.699 7.45982C207.134 7.36563 207.569 7.27144 207.964 7.15841C212.232 6.32955 216.659 5.87743 221.244 5.57603C222.483 5.49725 223.766 5.43907 225.07 5.37994C226.26 5.32596 227.467 5.2712 228.674 5.19927C229.702 5.16159 230.769 5.12392 231.836 5.08624C232.903 5.04857 233.971 5.01089 234.998 4.97321C239.267 4.82251 243.693 4.67181 247.962 4.74716C249.701 4.74716 250.966 4.06899 250.966 3.31548C250.966 2.56196 249.543 1.88379 247.962 1.88379C245.7 1.88379 243.437 1.95377 241.225 2.02219C240.191 2.05419 239.167 2.08584 238.16 2.10985C236.421 2.3359 234.84 2.41126 233.259 2.48661C232.469 2.52428 231.718 2.54312 230.967 2.56196C230.216 2.5808 229.465 2.59963 228.674 2.63731C227.702 2.67297 226.729 2.72549 225.74 2.77893C224.639 2.83841 223.517 2.89902 222.351 2.93872C218.872 3.08942 215.394 3.39083 212.074 3.76759C208.438 4.2197 204.96 4.82251 201.64 5.65138C201.463 5.69359 201.286 5.74172 201.105 5.79079C200.641 5.9169 200.154 6.04925 199.585 6.10349C199.189 6.17884 198.834 6.25419 198.478 6.32954C198.122 6.4049 197.767 6.48025 197.371 6.5556C196.265 6.78165 195.316 6.93236 194.209 7.08306C192.945 7.23377 191.68 7.38447 190.415 7.45982C189.308 7.53517 188.202 7.53517 187.095 7.53517C186.542 7.53517 186.028 7.51633 185.514 7.4975C185 7.47866 184.487 7.45982 183.933 7.45982C182.51 7.38447 181.087 7.23377 179.665 7.00771C178.242 6.78166 176.819 6.5556 175.396 6.25419C173.025 5.72676 170.653 5.12398 168.282 4.5212L168.282 4.5211C167.175 4.2197 166.226 3.91829 165.12 3.54153L161.326 2.41126C160.377 2.10985 159.27 1.88379 158.164 1.65774C157.531 1.50703 156.741 1.43168 155.95 1.35633C155.555 1.31866 155.199 1.29982 154.844 1.28098C154.488 1.26214 154.132 1.2433 153.737 1.20563C153.263 1.20563 152.788 1.20563 152.472 1.28098L150.575 1.50703C149.626 1.65774 148.678 1.88379 147.729 2.10985C146.781 2.3359 145.872 2.56196 144.963 2.78801C144.054 3.01407 143.144 3.24012 142.196 3.46618C139.824 4.06899 137.611 4.59646 135.082 5.12392C133.94 5.36582 132.696 5.55919 131.514 5.74298C131.223 5.78818 130.936 5.83281 130.655 5.87743C128.6 6.17884 126.702 6.32954 124.647 6.48025C123.393 6.57985 122.07 6.61362 120.77 6.64683C120.102 6.66387 119.441 6.68075 118.798 6.7063C116.584 6.7063 114.371 6.63095 112.158 6.48025C109.312 6.25419 106.624 6.02814 103.779 5.72673C101.249 5.42532 98.7195 5.04857 96.3481 4.59646C93.9766 4.06899 91.6052 3.54153 89.2338 2.93872C86.5461 2.26055 83.8585 1.58239 81.0128 1.13028C80.2158 0.967481 79.4188 0.882844 78.5628 0.791937C78.2302 0.756611 77.8886 0.720339 77.5347 0.678165C76.2699 0.527462 74.847 0.527462 73.4242 0.527462C72.1317 0.527462 70.9698 0.651799 69.7013 0.787535C69.5732 0.801236 69.4441 0.815052 69.3137 0.828869C67.8908 0.97957 66.6261 1.28097 65.3614 1.58237L65.3613 1.58239C62.3575 2.3359 59.6698 3.31548 56.9822 4.29505L52.2393 6.10349C51.9913 6.19216 51.7372 6.28372 51.4781 6.37705C50.4164 6.75959 49.2726 7.17173 48.1288 7.53517C46.706 7.98728 45.125 8.36404 43.544 8.7408C43.3638 8.77516 43.1918 8.80952 43.0243 8.84298C42.457 8.9563 41.9409 9.05939 41.3307 9.11756C40.4989 9.24971 39.5455 9.32392 38.6838 9.391C38.5628 9.40041 38.4436 9.40969 38.3269 9.41897H37.0621H36.1135C35.3231 9.34361 34.5326 9.19291 33.7421 9.04221C30.8964 8.36404 28.2087 7.53517 25.6792 6.63095C24.4144 6.17884 23.3078 5.72673 22.2011 5.19927C21.8058 5.01089 21.4106 4.84135 21.0154 4.67181C20.6201 4.50227 20.2249 4.33272 19.8296 4.14434C19.0592 3.8054 18.311 3.44528 17.5601 3.08383C16.3077 2.48102 15.0476 1.8745 13.6639 1.35633C12.7153 1.05492 11.7667 0.753517 10.6601 0.45211C10.0277 0.301407 9.39531 0.226055 8.76292 0.150703C8.68388 0.150703 8.5653 0.131866 8.44673 0.113028C8.32816 0.0941897 8.20959 0.0753517 8.13054 0.0753517C7.86944 0.0753517 7.60834 0.0525155 7.37361 0.0319862C7.18196 0.0152241 7.00789 0 6.86577 0H6.23338H6.07529C5.7591 0 5.28482 0 4.96863 0.0753517C4.57339 0.113028 4.21767 0.150703 3.86195 0.188379C3.50624 0.226055 3.15052 0.263731 2.75528 0.301407C1.83685 0.447321 0.918426 0.593234 0 0.759413V3.62681Z" fill="#EE9B4E"/>
</svg>
