<svg width="331" height="24" viewBox="0 0 331 24" fill="none" xmlns="http://www.w3.org/2000/svg">
<path d="M316.495 3.79214C315.261 3.89965 314.15 3.89965 312.915 4.00716C311.31 4.11467 309.705 4.3297 307.976 4.43721C305.26 4.65223 302.544 5.08228 299.951 5.61983C297.111 6.2649 294.395 7.12499 291.802 8.30762C291.308 8.52264 290.814 8.84518 290.197 8.95269C289.579 9.16771 289.086 9.38273 288.468 9.59776C287.604 9.92029 286.863 10.1353 285.999 10.3503C285.011 10.5654 284.023 10.7804 283.036 10.8879C282.171 10.9954 281.307 10.9954 280.443 10.9954C279.578 10.9954 278.838 10.8879 277.973 10.8879C276.862 10.7804 275.751 10.5654 274.64 10.2428C273.529 9.92029 272.417 9.59776 271.306 9.16771C269.454 8.41513 267.602 7.55504 265.75 6.69495C264.886 6.2649 264.145 5.83486 263.281 5.2973C262.293 4.75974 261.305 4.22219 260.317 3.68463C259.577 3.25458 258.712 2.93205 257.848 2.60951C257.354 2.39449 256.737 2.28698 256.12 2.17947C255.502 2.07196 255.008 2.07196 254.391 1.96445C254.021 1.96445 253.65 1.96445 253.403 2.07196C252.909 2.17947 252.415 2.28698 251.922 2.39449C251.181 2.60951 250.44 2.93205 249.699 3.25458C248.218 3.89965 246.859 4.54472 245.378 5.18979C243.526 6.04988 241.797 6.80246 239.822 7.55504C238.71 7.98509 237.476 8.30762 236.365 8.63015C234.76 9.0602 233.278 9.27522 231.673 9.49025C230.191 9.70527 228.586 9.70527 227.104 9.81278C225.376 9.81278 223.647 9.70527 221.919 9.49025C219.696 9.16771 217.597 8.84518 215.375 8.41513C213.399 7.98509 211.424 7.44753 209.572 6.80246C207.72 6.04988 205.868 5.2973 204.016 4.43721C201.917 3.46961 199.818 2.502 197.596 1.85693C196.731 1.5344 195.867 1.42689 194.879 1.21187C193.892 0.996843 192.78 0.996843 191.669 0.996843C190.558 0.996843 189.57 1.21187 188.459 1.42689C187.348 1.64191 186.36 2.07196 185.372 2.502C183.026 3.57712 180.927 4.97477 178.828 6.37241C177.594 7.23251 176.359 8.0926 175.124 8.95269C174.137 9.59776 173.025 10.3503 171.914 10.9954C170.803 11.6405 169.568 12.178 168.334 12.7156C167.716 12.9306 167.222 13.1456 166.605 13.2531C165.864 13.4682 165 13.5757 164.259 13.6832C163.889 13.6832 163.642 13.6832 163.271 13.6832C163.024 13.6832 162.778 13.6832 162.531 13.6832C161.913 13.5757 161.296 13.3607 160.679 13.1456C158.456 12.178 156.357 10.9954 154.382 9.70527C153.394 9.0602 152.53 8.41513 151.665 7.66255C151.048 7.12499 150.431 6.69495 149.813 6.15739C148.208 4.86725 146.727 3.36209 144.998 2.17947C144.257 1.74942 143.516 1.31938 142.652 0.889331C142.158 0.674308 141.664 0.566797 141.171 0.459286C141.047 0.459286 140.8 0.351774 140.677 0.351774C140.306 0.351774 139.936 0.244263 139.689 0.244263C139.565 0.244263 139.319 0.244263 139.195 0.244263H139.072C138.825 0.244263 138.454 0.244263 138.207 0.351774C137.59 0.459286 137.096 0.566797 136.479 0.674308C135.368 0.996843 134.256 1.31938 133.145 1.74942C132.281 2.07196 131.417 2.39449 130.552 2.82454C129.935 3.03956 129.318 3.36209 128.7 3.57712C127.712 4.00716 126.848 4.43721 125.86 4.86725C125.367 5.08228 124.873 5.2973 124.502 5.51232C123.638 5.94237 122.774 6.47993 122.033 6.90997C121.416 7.23251 120.798 7.55504 120.181 7.98509C118.576 8.84518 117.094 9.81278 115.489 10.6729C112.155 12.6081 108.698 14.5433 104.994 15.9409C104.13 16.2635 103.389 16.4785 102.525 16.801C101.537 17.1236 100.426 17.3386 99.3148 17.4461C98.8209 17.4461 98.4505 17.5536 97.9566 17.5536C97.2158 17.5536 96.5985 17.5536 95.8577 17.4461C94.8699 17.3386 93.8822 17.1236 93.0179 16.801C92.0302 16.371 91.0424 15.8334 90.1781 15.2959C88.6965 14.3283 87.4618 13.1456 86.2272 11.963C85.6098 11.4255 84.9925 10.7804 84.3751 10.2428C83.6343 9.59776 82.7701 8.95269 82.0292 8.30762C81.2884 7.77006 80.6711 7.34002 79.8068 7.01748C79.066 7.23251 78.5721 7.01748 78.0783 6.90997C77.5844 6.80246 77.0905 6.69495 76.5966 6.69495C76.2262 6.69495 75.9793 6.69495 75.6089 6.80246C75.115 6.90997 74.7446 7.01748 74.2507 7.23251C73.8803 7.44753 73.3865 7.66255 73.0161 7.87757C72.6456 8.20011 72.2752 8.52264 72.0283 8.84518C71.411 9.49025 70.7936 10.1353 70.2998 10.7804C69.8059 11.3179 69.312 11.748 68.9416 12.2855C68.4477 12.8231 67.8304 13.4682 67.3365 14.0057C66.2253 15.1884 64.9906 16.156 63.6325 17.1236C62.6447 17.7686 61.5335 18.3062 60.4223 18.8437C59.3111 19.1663 58.3233 19.3813 57.2121 19.5963C55.607 19.7038 54.1254 19.7038 52.5203 19.5963C50.051 19.2738 47.7051 18.6287 45.3592 17.7686C43.2602 16.9085 41.2847 16.0484 39.3092 14.9733C38.3215 14.4358 37.3337 13.8982 36.346 13.2531C35.3582 12.7156 34.3705 12.0705 33.3827 11.533C32.395 10.8879 31.4072 10.3503 30.4195 9.81278C29.4318 9.27522 28.3205 8.73767 27.2093 8.30762C25.1104 7.44753 22.8879 6.90997 20.6655 7.01748C20.1716 7.01748 19.5543 7.12499 19.0604 7.12499C18.4431 7.23251 17.9492 7.34002 17.4553 7.44753C16.9615 7.55504 16.4676 7.77006 16.0972 7.87757C15.6033 8.0926 15.1094 8.30762 14.6156 8.41513C12.0227 9.16771 9.92376 10.2428 7.94827 11.4255C6.21971 12.5006 4.49116 13.6832 3.00954 15.0808C2.26873 15.7259 1.65139 16.371 1.03405 17.016C0.78711 17.3386 0.540174 17.6611 0.416705 18.0912C0.416705 18.1987 0.293237 18.4137 0.293237 18.5212C0.169769 18.8437 0.169769 19.1663 0.0463006 19.4888C-0.0771677 19.9189 0.0463006 20.3489 0.416705 20.6714C0.78711 20.8865 1.28098 20.994 1.77486 20.8865C2.14526 20.7789 2.3922 20.6714 2.7626 20.6714C3.25648 20.5639 3.62688 20.3489 4.12075 20.1339C4.7381 19.8113 4.98503 19.0588 4.61463 18.5212C4.36769 18.1987 4.12075 18.0912 3.75035 17.9837C4.98503 16.801 6.34318 15.7259 7.70133 14.6508C10.0472 13.1456 12.5166 11.963 15.1094 10.8879C15.7268 10.6729 16.3441 10.4578 16.9615 10.2428C17.7023 10.1353 18.5665 9.92029 19.3074 9.81278C20.0482 9.70527 20.6655 9.70527 21.4063 9.81278C21.9002 9.92029 22.2706 9.92029 22.7645 10.0278C23.5053 10.2428 24.1226 10.4578 24.74 10.6729C25.9746 11.2104 27.2093 11.748 28.3205 12.3931C29.6787 13.1456 30.9134 14.0057 32.2715 14.8658C33.5062 15.6184 34.8644 16.4785 36.2225 17.2311C37.5807 17.9837 38.9388 18.7362 40.297 19.3813C43.0133 20.6714 45.853 21.7466 48.6928 22.4991C51.656 23.2517 54.8662 23.5742 58.0764 23.1442C59.558 22.9292 60.9162 22.6066 62.2743 22.1766C63.6325 21.639 64.8671 21.1015 65.9784 20.3489C67.213 19.5963 68.3243 18.6287 69.4355 17.6611C70.0528 17.1236 70.5467 16.586 71.0406 16.0484C71.7814 15.1884 72.5222 14.4358 73.263 13.5757C74.1273 12.6081 74.9915 11.533 76.1028 10.5654C76.2262 10.5654 76.2262 10.4578 76.3497 10.4578C76.4732 10.4578 76.5966 10.3503 76.7201 10.3503H76.8436C77.0905 10.3503 77.214 10.4578 77.4609 10.4578C77.9548 10.6729 78.4487 10.8879 78.9425 11.2104C80.3007 12.0705 81.4119 13.1456 82.5231 14.2207C84.0047 15.5109 85.4864 16.9085 87.0914 18.0912C87.8322 18.6287 88.5731 19.0588 89.3139 19.4888C90.1781 20.0264 91.1659 20.3489 92.1536 20.6714C93.0179 20.994 94.0057 21.1015 94.9934 21.3165C96.1046 21.424 97.3393 21.5315 98.4505 21.424C99.4383 21.424 100.426 21.209 101.29 21.1015C102.402 20.8865 103.513 20.5639 104.624 20.2414C106.723 19.5963 108.698 18.7362 110.55 17.8761C113.39 16.586 115.983 14.9733 118.576 13.4682C119.811 12.7156 121.045 11.963 122.403 11.2104C123.885 10.3503 125.367 9.59776 126.848 8.73767C126.972 8.63015 127.219 8.52264 127.342 8.52264C127.836 8.30762 128.33 8.0926 128.824 7.77006C129.565 7.44753 130.305 7.01748 131.17 6.69495C131.293 6.58744 131.54 6.58744 131.663 6.47993C132.157 6.2649 132.775 6.04988 133.269 5.83486C134.133 5.51232 135.121 5.08228 135.985 4.75974C136.849 4.43721 137.837 4.22219 138.825 4.00716C139.072 4.00716 139.195 4.00716 139.442 4.00716C139.565 4.00716 139.812 4.00716 139.936 4.00716C140.306 4.11467 140.677 4.22219 141.171 4.3297C141.788 4.65223 142.405 4.97477 143.023 5.40481C144.875 6.80246 146.48 8.30762 148.208 9.70527C149.319 10.5654 150.431 11.4255 151.542 12.2855C152.653 13.0381 153.764 13.6832 154.876 14.4358C156.11 15.1884 157.345 15.7259 158.58 16.371C159.691 16.9085 161.049 17.2311 162.284 17.4461C162.901 17.5536 163.395 17.5536 164.012 17.4461C164.753 17.4461 165.494 17.3386 166.235 17.1236C167.469 16.9085 168.704 16.586 169.815 16.156C171.173 15.6184 172.408 15.0808 173.643 14.4358C175.371 13.4682 176.853 12.3931 178.458 11.3179C179.322 10.6729 180.31 10.0278 181.174 9.38274C181.915 8.84518 182.656 8.41513 183.397 7.87757C185.002 6.80246 186.607 5.94237 188.459 5.18979C189.323 4.86725 190.187 4.65223 191.175 4.54472C191.669 4.54472 192.039 4.43721 192.533 4.43721C192.904 4.43721 193.274 4.43721 193.768 4.54472C195.25 4.75974 196.608 5.08228 197.966 5.51232C199.077 5.94237 200.312 6.47993 201.423 6.90997C202.164 7.23251 202.781 7.55504 203.522 7.87757C204.139 8.20011 204.88 8.52264 205.621 8.84518C206.979 9.38274 208.337 9.92029 209.695 10.4578C211.177 10.9954 212.659 11.3179 214.14 11.6405C217.35 12.3931 220.561 12.8231 223.771 13.1456C225.376 13.3607 227.104 13.3607 228.71 13.3607C230.315 13.3607 231.92 13.1456 233.525 12.9306C236.365 12.6081 239.204 11.8555 241.921 10.8879C243.649 10.2428 245.254 9.49025 246.983 8.73767C248.958 7.87757 250.934 6.90997 253.033 6.04988C253.403 5.94237 253.897 5.83486 254.267 5.72735C254.514 5.72735 254.761 5.72735 255.008 5.72735C255.626 5.83486 256.12 5.94237 256.737 6.15739C258.589 6.90997 260.194 7.98509 261.923 8.95269C263.651 10.0278 265.503 10.8879 267.355 11.748C269.207 12.6081 271.183 13.2531 273.158 13.8982C275.381 14.5433 277.726 14.8658 280.072 14.9733C282.171 15.0808 284.27 14.8658 286.246 14.4358C287.974 14.1132 289.703 13.4682 291.308 12.8231C292.049 12.5006 292.666 12.2855 293.407 11.963C293.901 11.748 294.271 11.533 294.765 11.3179C295.382 10.9954 296.123 10.7804 296.741 10.4578C300.074 9.27522 303.531 8.63015 307.112 8.20011C308.964 7.98509 310.939 7.87757 312.915 7.66255C314.52 7.55504 316.249 7.44753 317.854 7.34002C321.187 7.12499 324.644 6.90997 327.978 7.01748C329.336 7.01748 330.324 6.04988 330.324 4.97477C330.324 3.89965 329.213 2.93205 327.978 2.93205C325.385 2.93205 322.792 3.14707 320.323 3.25458C318.965 3.57712 317.73 3.68463 316.495 3.79214ZM253.897 5.83486C254.021 5.83486 254.021 5.83486 254.144 5.83486C254.021 5.83486 253.897 5.83486 253.897 5.83486Z" fill="#EE9B4E"/>
</svg>
